# Alias OBJ Model File
# Exported from SketchUp, (c) 2000-2012 Trimble Navigation Limited
# File units = millimeters

mtllib led_mounting.mtl

g Mesh1 Model

usemtl Steel_Brushed_Stainless
v 34 1 -1
vt -1.33858 0.0393701
vn 7.55348e-017 0 -1
v 6 1 -1
vt -0.23622 0.0393701
v 6 16 -1
vt -0.23622 0.629921
v 34 16 -1
vt -1.33858 0.629921
f 1/1/1 2/2/1 3/3/1 4/4/1 

vt 1.33858 0.0393701
vn 8.03752e-034 1 -2.51783e-017
v 34 1 -8
vt 1.33858 0.314961
v 6 1 -8
vt 0.23622 0.314961
vt 0.23622 0.0393701
f 1/5/2 5/6/2 6/7/2 2/8/2 

usemtl _Metal_Aluminum_Anodized_1
v 34 21 -8
vt 0.314961 0.826772
vn 1 -1.67436e-016 -1.46492e-016
vt 0.0393701 0.629921
vt 0.0393701 0.0393701
vt 0.314961 0.0393701
v 34 14.2264 -8
vt 0.314961 0.560095
v 34 14.2264 -22
vt 0.866142 0.560095
v 34 1 -22
vt 0.866142 0.0393701
v 34 1 -29
vt 1.14173 0.0393701
v 34 16 -29
vt 1.14173 0.629921
v 34 21 -22
vt 0.866142 0.826772
f 7/9/3 4/10/3 1/11/3 5/12/3 8/13/3 9/14/3 10/15/3 11/16/3 12/17/3 13/18/3 

v 6 21 -8
vt 0.23622 0.736845
vn -2.65513e-017 0.813733 0.581238
vt 0.23622 0.398171
vt 1.33858 0.398171
vt 1.33858 0.736845
f 14/19/4 3/20/4 4/21/4 7/22/4 

vt -0.0393701 0.0393701
vn -1 0 -0
vt -0.0393701 0.629921
vt -0.314961 0.826772
v 6 21 -22
vt -0.866142 0.826772
v 6 16 -29
vt -1.14173 0.629921
v 6 1 -29
vt -1.14173 0.0393701
v 6 1 -22
vt -0.866142 0.0393701
v 6 14.2264 -22
vt -0.866142 0.560095
v 6 14.2264 -8
vt -0.314961 0.560095
vt -0.314961 0.0393701
f 2/23/5 3/24/5 14/25/5 15/26/5 16/27/5 17/28/5 18/29/5 19/30/5 20/31/5 6/32/5 

vn 0 1 -0
v 19.75 21 -12.797
vt 0.777559 0.503818
vt 0.23622 0.866142
f 14/7/6 21/33/6 15/34/6

f 21/33/6 14/7/6 7/6/6

v 20 21 -12.73
vt 0.787402 0.501181
f 21/33/6 7/6/6 22/35/6

v 20.25 21 -12.797
vt 0.797244 0.503818
f 22/35/6 7/6/6 23/36/6

v 20.433 21 -12.98
vt 0.804449 0.511024
f 23/36/6 7/6/6 24/37/6

v 20.5 21 -13.23
vt 0.807087 0.520866
f 24/37/6 7/6/6 25/38/6

v 20.5 21 -16.77
vt 0.807087 0.660236
f 25/38/6 7/6/6 26/39/6

vt 1.33858 0.866142
f 13/40/6 26/39/6 7/6/6

v 20.433 21 -17.02
vt 0.804449 0.670079
f 13/40/6 27/41/6 26/39/6

v 20.25 21 -17.203
vt 0.797244 0.677284
f 13/40/6 28/42/6 27/41/6

v 20 21 -17.27
vt 0.787402 0.679921
f 13/40/6 29/43/6 28/42/6

v 19.75 21 -17.203
vt 0.777559 0.677284
f 13/40/6 30/44/6 29/43/6

f 15/34/6 30/44/6 13/40/6

v 19.567 21 -17.02
vt 0.770354 0.670079
f 30/44/6 15/34/6 31/45/6

v 19.5 21 -16.77
vt 0.767717 0.660236
f 31/45/6 15/34/6 32/46/6

v 19.5 21 -13.23
vt 0.767717 0.520866
f 32/46/6 15/34/6 33/47/6

v 19.567 21 -12.98
vt 0.770354 0.511024
f 15/34/6 34/48/6 33/47/6

f 15/34/6 21/33/6 34/48/6

usemtl Steel_Brushed_Stainless
vt 0.193564 0.826772
vn -0.5 -8.66603e-032 0.866025
vt 0.183374 0.826772
vn -0.866025 8.66603e-032 0.5
v 19.567 14.2264 -12.98
vt 0.183374 0.560095
v 19.75 14.2264 -12.797
vt 0.193564 0.560095
f 21/49/7 34/50/8 35/51/8 36/52/7 

vt -0.294229 0.826772
vt -0.304418 0.826772
vn -1 1.73321e-031 -0
v 19.5 14.2264 -13.23
vt -0.304418 0.560095
vt -0.294229 0.560095
f 34/53/8 33/54/9 37/55/9 35/56/8 

vt -0.701818 0.826772
v 19.567 21 -13.48
vt -0.712007 0.826772
vn -0.866025 8.66603e-032 -0.5
v 19.567 14.2264 -13.48
vt -0.712007 0.560095
vt -0.701818 0.560095
f 33/57/9 38/58/10 39/59/10 37/60/9 

usemtl _Metal_Aluminum_Anodized_1
vt 0.770354 0.530709
f 38/61/6 32/46/6 33/47/6

v 19.567 21 -16.52
vt 0.770354 0.650394
f 32/46/6 38/61/6 40/62/6

v 19.75 21 -13.663
vt 0.777559 0.537914
f 40/62/6 38/61/6 41/63/6

usemtl Steel_Brushed_Stainless
vt -0.91999 0.826772
vt -0.93018 0.826772
vn -0.5 -8.66603e-032 -0.866025
v 19.75 14.2264 -13.663
vt -0.93018 0.560095
vt -0.91999 0.560095
f 38/64/10 41/65/11 42/66/11 39/67/10 

vt -0.890287 0.826772
v 20 21 -13.73
vt -0.900476 0.826772
vn 0 -1.73321e-031 -1
v 20 14.2264 -13.73
vt -0.900476 0.560095
vt -0.890287 0.560095
f 41/68/11 43/69/12 44/70/12 42/71/11 

usemtl _Metal_Aluminum_Anodized_1
v 19.75 21 -16.337
vt 0.777559 0.643188
vt 0.787402 0.540551
f 45/72/6 41/63/6 43/73/6

f 40/62/6 41/63/6 45/72/6

vt -0.0848246 0.826772
vn 0.866025 0 -0.5
vt -0.0950143 0.826772
vn 0.5 0 -0.866025
v 19.75 14.2264 -16.337
vt -0.0950143 0.560095
v 19.567 14.2264 -16.52
vt -0.0848246 0.560095
f 40/74/13 45/75/14 46/76/14 47/77/13 

vt -0.584595 0.826772
v 20 21 -16.27
vt -0.594785 0.826772
vn 0 0 -1
v 20 14.2264 -16.27
vt -0.594785 0.560095
vt -0.584595 0.560095
f 45/78/14 48/79/15 49/80/15 46/81/14 

vt 0.787402 0.640551
f 45/72/6 43/73/6 48/82/6

v 20.25 21 -13.663
vt 0.797244 0.537914
f 48/82/6 43/73/6 50/83/6

usemtl Steel_Brushed_Stainless
vt -0.620667 0.826772
vt -0.630856 0.826772
vn 0.5 -2.1354e-031 -0.866025
v 20.25 14.2264 -13.663
vt -0.630856 0.560095
vt -0.620667 0.560095
f 43/84/12 50/85/16 51/86/16 44/87/12 

vt -0.183374 0.826772
v 20.433 21 -13.48
vt -0.193564 0.826772
vn 0.866025 -4.02192e-032 -0.5
v 20.433 14.2264 -13.48
vt -0.193564 0.560095
vt -0.183374 0.560095
f 50/88/16 52/89/17 53/90/17 51/91/16 

usemtl _Metal_Aluminum_Anodized_1
v 20.25 21 -16.337
vt 0.797244 0.643188
vt 0.804449 0.530709
f 54/92/6 50/83/6 52/93/6

f 48/82/6 50/83/6 54/92/6

vt -0.926358 0.826772
vt -0.936548 0.826772
vn -0.5 0 -0.866025
v 20.25 14.2264 -16.337
vt -0.936548 0.560095
vt -0.926358 0.560095
f 48/94/15 54/95/18 55/96/18 49/97/15 

vt -1.01854 0.826772
v 20.433 21 -16.52
vt -1.02873 0.826772
vn -0.866025 0 -0.5
v 20.433 14.2264 -16.52
vt -1.02873 0.560095
vt -1.01854 0.560095
f 54/98/18 56/99/19 57/100/19 55/101/18 

vt 0.804449 0.650394
f 54/92/6 52/93/6 56/102/6

f 56/102/6 52/93/6 25/38/6

usemtl Steel_Brushed_Stainless
vt 0.304418 0.826772
vt 0.294229 0.826772
vn 1 1.73321e-031 -0
v 20.5 14.2264 -13.23
vt 0.294229 0.560095
vt 0.304418 0.560095
f 52/103/17 25/104/20 58/105/20 53/106/17 

vt 0.712007 0.826772
vt 0.701818 0.826772
vn 0.866025 8.66603e-032 0.5
v 20.433 14.2264 -12.98
vt 0.701818 0.560095
vt 0.712007 0.560095
f 25/107/20 24/108/21 59/109/21 58/110/20 

vt 0.93018 0.826772
vt 0.91999 0.826772
vn 0.5 -8.66603e-032 0.866025
v 20.25 14.2264 -12.797
vt 0.91999 0.560095
vt 0.93018 0.560095
f 24/111/21 23/112/22 60/113/22 59/114/21 

vt 0.900476 0.826772
vt 0.890287 0.826772
vn 0 -1.73321e-031 1
v 20 14.2264 -12.73
vt 0.890287 0.560095
vt 0.900476 0.560095
f 23/115/22 22/116/23 61/117/23 60/118/22 

vt 0.630856 0.826772
vt 0.620667 0.826772
vt 0.620667 0.560095
vt 0.630856 0.560095
f 22/119/23 21/120/7 36/121/7 61/122/23 

usemtl _Metal_Aluminum_Anodized_1
vt -1.33858 0.314961
vn 0 -1 -0
vt -0.777559 0.503818
vt -0.787402 0.501181
f 8/123/24 36/124/24 61/125/24

vt -0.23622 0.314961
f 20/126/24 36/124/24 8/123/24

vt -0.770354 0.511024
f 36/124/24 20/126/24 35/127/24

vt -0.767717 0.520866
f 35/127/24 20/126/24 37/128/24

v 19.5 14.2264 -16.77
vt -0.767717 0.660236
f 37/128/24 20/126/24 62/129/24

v 19.567 14.2264 -17.02
vt -0.770354 0.670079
f 20/126/24 63/130/24 62/129/24

v 19.75 14.2264 -17.203
vt -0.777559 0.677284
f 20/126/24 64/131/24 63/130/24

vt -0.23622 0.866142
f 19/132/24 64/131/24 20/126/24

vt -1.33858 0.866142
f 64/131/24 19/132/24 9/133/24

vt 0.23622 0.560095
vn 0 0 1
vt 1.33858 0.560095
f 19/134/25 18/8/25 10/5/25 9/135/25 

usemtl Steel_Brushed_Stainless
vt 1.33858 1.14173
vt 0.23622 1.14173
f 18/34/6 10/40/6 11/136/6 17/137/6 

vt 1.33858 0.629921
vt 0.23622 0.629921
f 17/8/25 11/5/25 12/138/25 16/139/25 

usemtl _Metal_Aluminum_Anodized_1
vt -0.23622 -0.562931
vn -6.63782e-019 0.813733 -0.581238
vt -0.23622 -0.224257
vt -1.33858 -0.224257
vt -1.33858 -0.562931
f 16/140/26 15/141/26 13/142/26 12/143/26 

v 20 14.2264 -17.27
vt -0.787402 0.679921
f 64/131/24 9/133/24 65/144/24

v 20.25 14.2264 -17.203
vt -0.797244 0.677284
f 65/144/24 9/133/24 66/145/24

v 20.433 14.2264 -17.02
vt -0.804449 0.670079
f 66/145/24 9/133/24 67/146/24

v 20.5 14.2264 -16.77
vt -0.807087 0.660236
f 67/146/24 9/133/24 68/147/24

vt -0.807087 0.520866
f 68/147/24 9/133/24 58/148/24

f 8/123/24 58/148/24 9/133/24

vt -0.804449 0.511024
f 8/123/24 59/149/24 58/148/24

vt -0.797244 0.503818
f 8/123/24 60/150/24 59/149/24

f 8/123/24 61/125/24 60/150/24

vt -0.804449 0.530709
f 53/151/24 68/147/24 58/148/24

vt -0.804449 0.650394
f 53/151/24 57/152/24 68/147/24

vt -0.797244 0.537914
f 51/153/24 57/152/24 53/151/24

vt -0.797244 0.643188
f 51/153/24 55/154/24 57/152/24

vt -0.787402 0.540551
f 44/155/24 55/154/24 51/153/24

vt -0.787402 0.640551
f 44/155/24 49/156/24 55/154/24

vt -0.777559 0.537914
f 42/157/24 49/156/24 44/155/24

vt -0.777559 0.643188
f 42/157/24 46/158/24 49/156/24

vt -0.770354 0.530709
f 39/159/24 46/158/24 42/157/24

vt -0.770354 0.650394
f 39/159/24 47/160/24 46/158/24

f 37/128/24 47/160/24 39/159/24

f 47/160/24 37/128/24 62/129/24

vt 0.43904 0.826772
vn 1 0 -0
vt 0.42885 0.826772
vt 0.42885 0.560095
vt 0.43904 0.560095
f 32/161/27 40/162/13 47/163/13 62/164/27 

vt 0.846629 0.826772
vn 0.866025 0 0.5
vt 0.836439 0.826772
vt 0.836439 0.560095
vt 0.846629 0.560095
f 31/165/28 32/166/27 62/167/27 63/168/28 

vt 1.02873 0.826772
vn 0.5 0 0.866025
vt 1.01854 0.826772
vt 1.01854 0.560095
vt 1.02873 0.560095
f 30/169/29 31/170/28 63/171/28 64/172/29 

vt 0.936548 0.826772
vt 0.926358 0.826772
vt 0.926358 0.560095
vt 0.936548 0.560095
f 29/173/25 30/174/29 64/175/29 65/176/25 

vt 0.594785 0.826772
vn -0.5 0 0.866025
vt 0.584595 0.826772
vt 0.584595 0.560095
vt 0.594785 0.560095
f 28/177/30 29/178/25 65/179/25 66/180/30 

vt 0.0950143 0.826772
vn -0.866025 0 0.5
vt 0.0848246 0.826772
vt 0.0848246 0.560095
vt 0.0950143 0.560095
f 27/181/31 28/182/30 66/183/30 67/184/31 

vt -0.42885 0.826772
vt -0.43904 0.826772
vt -0.43904 0.560095
vt -0.42885 0.560095
f 26/185/5 27/186/31 67/187/31 68/188/5 

vt -0.836439 0.826772
vt -0.846629 0.826772
vt -0.846629 0.560095
vt -0.836439 0.560095
f 56/189/19 26/190/5 68/191/5 57/192/19 

f 56/102/6 25/38/6 26/39/6

vt -0.23622 0.560095
vt -1.33858 0.560095
f 6/2/15 20/193/15 8/194/15 5/1/15 

