solid input_shaft
facet normal -0.0 -0.0 1.0
  outer loop
    vertex -3.5795716533333297 -1.0574874309554614e-15 35.0
    vertex -2.573535748890426 -0.3700185795105438 35.0
    vertex -2.600000000000001 -2.6265895393657152e-15 35.0
  endloop
endfacet
facet normal -0.0 -0.0 1.0
  outer loop
    vertex -2.573535748890426 -0.3700185795105438 35.0
    vertex -3.5795716533333297 -1.0574874309554614e-15 35.0
    vertex -2.4946817313976934 -0.7325046477877194 35.0
  endloop
endfacet
facet normal -0.0 -0.0 1.0
  outer loop
    vertex -2.4946817313976934 -0.7325046477877194 35.0
    vertex -3.5795716533333297 -1.0574874309554614e-15 35.0
    vertex -1.7897858266666653 -3.100000000000002 35.0
  endloop
endfacet
facet normal -0.0 -0.0 1.0
  outer loop
    vertex -2.4946817313976934 -0.7325046477877194 35.0
    vertex -1.7897858266666653 -3.100000000000002 35.0
    vertex -2.365043187921748 -1.0800790338049064 35.0
  endloop
endfacet
facet normal -0.0 -0.0 1.0
  outer loop
    vertex -2.365043187921748 -1.0800790338049064 35.0
    vertex -1.7897858266666653 -3.100000000000002 35.0
    vertex -2.187259185361071 -1.4056661253845553 35.0
  endloop
endfacet
facet normal -0.0 -0.0 1.0
  outer loop
    vertex -2.187259185361071 -1.4056661253845553 35.0
    vertex -1.7897858266666653 -3.100000000000002 35.0
    vertex -1.9649488933210717 -1.7026379082577427 35.0
  endloop
endfacet
facet normal -0.0 -0.0 1.0
  outer loop
    vertex -1.9649488933210717 -1.7026379082577427 35.0
    vertex -1.7897858266666653 -3.100000000000002 35.0
    vertex -1.702637908257741 -1.9649488933210726 35.0
  endloop
endfacet
facet normal -0.0 -0.0 1.0
  outer loop
    vertex -1.702637908257741 -1.9649488933210726 35.0
    vertex -1.7897858266666653 -3.100000000000002 35.0
    vertex -1.4056661253845533 -2.187259185361072 35.0
  endloop
endfacet
facet normal -0.0 -0.0 1.0
  outer loop
    vertex -1.4056661253845533 -2.187259185361072 35.0
    vertex -1.7897858266666653 -3.100000000000002 35.0
    vertex -1.2970550775664018 -2.246565304377453 35.0
  endloop
endfacet
facet normal -0.0 -0.0 1.0
  outer loop
    vertex -1.2970550775664018 -2.246565304377453 35.0
    vertex -1.7897858266666653 -3.100000000000002 35.0
    vertex -1.080079033804904 -2.3650431879217484 35.0
  endloop
endfacet
facet normal -0.0 -0.0 1.0
  outer loop
    vertex -1.080079033804904 -2.3650431879217484 35.0
    vertex -1.7897858266666653 -3.100000000000002 35.0
    vertex -0.7325046477877168 -2.4946817313976934 35.0
  endloop
endfacet
facet normal -0.0 -0.0 1.0
  outer loop
    vertex -0.7325046477877168 -2.4946817313976934 35.0
    vertex -1.7897858266666653 -3.100000000000002 35.0
    vertex 1.7897858266666666 -3.100000000000002 35.0
  endloop
endfacet
facet normal -0.0 -0.0 1.0
  outer loop
    vertex -0.7325046477877168 -2.4946817313976934 35.0
    vertex 1.7897858266666666 -3.100000000000002 35.0
    vertex -0.37001857951054107 -2.5735357488904254 35.0
  endloop
endfacet
facet normal -0.0 -0.0 1.0
  outer loop
    vertex -0.37001857951054107 -2.5735357488904254 35.0
    vertex 1.7897858266666666 -3.100000000000002 35.0
    vertex 1.1856986900396233e-16 -2.6 35.0
  endloop
endfacet
facet normal -0.0 -0.0 1.0
  outer loop
    vertex 1.1856986900396233e-16 -2.6 35.0
    vertex 1.7897858266666666 -3.100000000000002 35.0
    vertex 0.3700185795105413 -2.573535748890425 35.0
  endloop
endfacet
facet normal -0.0 -0.0 1.0
  outer loop
    vertex 0.3700185795105413 -2.573535748890425 35.0
    vertex 1.7897858266666666 -3.100000000000002 35.0
    vertex 0.7325046477877168 -2.494681731397693 35.0
  endloop
endfacet
facet normal -0.0 -0.0 1.0
  outer loop
    vertex 0.7325046477877168 -2.494681731397693 35.0
    vertex 1.7897858266666666 -3.100000000000002 35.0
    vertex 1.0800790338049042 -2.365043187921748 35.0
  endloop
endfacet
facet normal -0.0 -0.0 1.0
  outer loop
    vertex 1.0800790338049042 -2.365043187921748 35.0
    vertex 1.7897858266666666 -3.100000000000002 35.0
    vertex 1.2970550775664023 -2.246565304377452 35.0
  endloop
endfacet
facet normal -0.0 -0.0 1.0
  outer loop
    vertex 1.2970550775664023 -2.246565304377452 35.0
    vertex 1.7897858266666666 -3.100000000000002 35.0
    vertex 1.4056661253845533 -2.187259185361071 35.0
  endloop
endfacet
facet normal -0.0 -0.0 1.0
  outer loop
    vertex 1.4056661253845533 -2.187259185361071 35.0
    vertex 1.7897858266666666 -3.100000000000002 35.0
    vertex 1.702637908257741 -1.9649488933210717 35.0
  endloop
endfacet
facet normal -0.0 -0.0 1.0
  outer loop
    vertex 1.702637908257741 -1.9649488933210717 35.0
    vertex 1.7897858266666666 -3.100000000000002 35.0
    vertex 1.9649488933210708 -1.7026379082577412 35.0
  endloop
endfacet
facet normal -0.0 -0.0 1.0
  outer loop
    vertex 1.9649488933210708 -1.7026379082577412 35.0
    vertex 1.7897858266666666 -3.100000000000002 35.0
    vertex 3.579571653333334 -3.524958103184872e-16 35.0
  endloop
endfacet
facet normal -0.0 -0.0 1.0
  outer loop
    vertex 1.9649488933210708 -1.7026379082577412 35.0
    vertex 3.579571653333334 -3.524958103184872e-16 35.0
    vertex 2.187259185361071 -1.405666125384554 35.0
  endloop
endfacet
facet normal -0.0 -0.0 1.0
  outer loop
    vertex 2.187259185361071 -1.405666125384554 35.0
    vertex 3.579571653333334 -3.524958103184872e-16 35.0
    vertex 2.365043187921748 -1.0800790338049047 35.0
  endloop
endfacet
facet normal -0.0 -0.0 1.0
  outer loop
    vertex 2.365043187921748 -1.0800790338049047 35.0
    vertex 3.579571653333334 -3.524958103184872e-16 35.0
    vertex 2.494681731397693 -0.7325046477877174 35.0
  endloop
endfacet
facet normal -0.0 -0.0 1.0
  outer loop
    vertex 2.494681731397693 -0.7325046477877174 35.0
    vertex 3.579571653333334 -3.524958103184872e-16 35.0
    vertex 2.5735357488904245 -0.37001857951054157 35.0
  endloop
endfacet
facet normal -0.0 -0.0 1.0
  outer loop
    vertex 2.5735357488904245 -0.37001857951054157 35.0
    vertex 3.579571653333334 -3.524958103184872e-16 35.0
    vertex 2.5799469117361125 -0.2803788100211321 35.0
  endloop
endfacet
facet normal -0.0 -0.0 1.0
  outer loop
    vertex -3.5795716533333297 -1.0574874309554614e-15 35.0
    vertex -2.494681731397695 0.7325046477877143 35.0
    vertex -1.7897858266666664 3.1 35.0
  endloop
endfacet
facet normal -0.0 -0.0 1.0
  outer loop
    vertex -2.494681731397695 0.7325046477877143 35.0
    vertex -3.5795716533333297 -1.0574874309554614e-15 35.0
    vertex -2.5735357488904262 0.37001857951053857 35.0
  endloop
endfacet
facet normal -0.0 -0.0 1.0
  outer loop
    vertex -2.5735357488904262 0.37001857951053857 35.0
    vertex -3.5795716533333297 -1.0574874309554614e-15 35.0
    vertex -2.600000000000001 -2.6265895393657152e-15 35.0
  endloop
endfacet
facet normal -0.0 -0.0 1.0
  outer loop
    vertex -1.7897858266666664 3.1 35.0
    vertex -2.494681731397695 0.7325046477877143 35.0
    vertex -2.3650431879217497 1.0800790338049016 35.0
  endloop
endfacet
facet normal -0.0 -0.0 1.0
  outer loop
    vertex -1.7897858266666664 3.1 35.0
    vertex -2.3650431879217497 1.0800790338049016 35.0
    vertex -2.1872591853610737 1.4056661253845506 35.0
  endloop
endfacet
facet normal -0.0 -0.0 1.0
  outer loop
    vertex -1.7897858266666664 3.1 35.0
    vertex -2.1872591853610737 1.4056661253845506 35.0
    vertex -1.9649488933210744 1.7026379082577385 35.0
  endloop
endfacet
facet normal -0.0 -0.0 1.0
  outer loop
    vertex -1.7897858266666664 3.1 35.0
    vertex -1.9649488933210744 1.7026379082577385 35.0
    vertex -1.7026379082577452 1.964948893321069 35.0
  endloop
endfacet
facet normal -0.0 -0.0 1.0
  outer loop
    vertex -1.7897858266666664 3.1 35.0
    vertex -1.7026379082577452 1.964948893321069 35.0
    vertex -1.4056661253845577 2.1872591853610692 35.0
  endloop
endfacet
facet normal -0.0 -0.0 1.0
  outer loop
    vertex -1.7897858266666664 3.1 35.0
    vertex -1.4056661253845577 2.1872591853610692 35.0
    vertex -1.297055077566403 2.246565304377452 35.0
  endloop
endfacet
facet normal -0.0 -0.0 1.0
  outer loop
    vertex -1.7897858266666664 3.1 35.0
    vertex -1.297055077566403 2.246565304377452 35.0
    vertex -1.0800790338049093 2.365043187921746 35.0
  endloop
endfacet
facet normal -0.0 -0.0 1.0
  outer loop
    vertex -1.7897858266666664 3.1 35.0
    vertex -1.0800790338049093 2.365043187921746 35.0
    vertex -0.7325046477877221 2.494681731397692 35.0
  endloop
endfacet
facet normal -0.0 -0.0 1.0
  outer loop
    vertex -1.7897858266666664 3.1 35.0
    vertex -0.7325046477877221 2.494681731397692 35.0
    vertex 1.7897858266666664 3.1 35.0
  endloop
endfacet
facet normal -0.0 -0.0 1.0
  outer loop
    vertex 1.7897858266666664 3.1 35.0
    vertex -0.7325046477877221 2.494681731397692 35.0
    vertex -0.3700185795105467 2.5735357488904245 35.0
  endloop
endfacet
facet normal -0.0 -0.0 1.0
  outer loop
    vertex 1.7897858266666664 3.1 35.0
    vertex -0.3700185795105467 2.5735357488904245 35.0
    vertex -5.535677277373306e-15 2.6 35.0
  endloop
endfacet
facet normal -0.0 -0.0 1.0
  outer loop
    vertex 1.7897858266666664 3.1 35.0
    vertex -5.535677277373306e-15 2.6 35.0
    vertex 0.3700185795105357 2.5735357488904262 35.0
  endloop
endfacet
facet normal -0.0 -0.0 1.0
  outer loop
    vertex 1.7897858266666664 3.1 35.0
    vertex 0.3700185795105357 2.5735357488904262 35.0
    vertex 0.7325046477877116 2.494681731397695 35.0
  endloop
endfacet
facet normal -0.0 -0.0 1.0
  outer loop
    vertex 1.7897858266666664 3.1 35.0
    vertex 0.7325046477877116 2.494681731397695 35.0
    vertex 1.0450737626161233 2.3780994790451957 35.0
  endloop
endfacet
facet normal -0.0 -0.0 1.0
  outer loop
    vertex 1.7897858266666664 3.1 35.0
    vertex 1.0450737626161233 2.3780994790451957 35.0
    vertex 2.5799469117361125 -0.2803788100211321 35.0
  endloop
endfacet
facet normal -0.0 -0.0 1.0
  outer loop
    vertex 1.7897858266666664 3.1 35.0
    vertex 2.5799469117361125 -0.2803788100211321 35.0
    vertex 3.579571653333334 -3.524958103184872e-16 35.0
  endloop
endfacet
facet normal 0.0 0.0 1.0
  outer loop
    vertex -2.573535748890426 -0.3700185795105438 20.999999999999993
    vertex -2.5735357488904262 0.37001857951053857 20.999999999999993
    vertex -2.600000000000001 -2.6265895393657152e-15 20.999999999999993
  endloop
endfacet
facet normal 0.0 0.0 1.0
  outer loop
    vertex -2.5735357488904262 0.37001857951053857 20.999999999999993
    vertex -2.573535748890426 -0.3700185795105438 20.999999999999993
    vertex -2.494681731397695 0.7325046477877143 20.999999999999993
  endloop
endfacet
facet normal 0.0 0.0 1.0
  outer loop
    vertex -2.494681731397695 0.7325046477877143 20.999999999999993
    vertex -2.573535748890426 -0.3700185795105438 20.999999999999993
    vertex -2.4946817313976934 -0.7325046477877194 20.999999999999993
  endloop
endfacet
facet normal 0.0 0.0 1.0
  outer loop
    vertex -2.494681731397695 0.7325046477877143 20.999999999999993
    vertex -2.4946817313976934 -0.7325046477877194 20.999999999999993
    vertex -2.3650431879217497 1.0800790338049016 20.999999999999993
  endloop
endfacet
facet normal 0.0 0.0 1.0
  outer loop
    vertex -2.3650431879217497 1.0800790338049016 20.999999999999993
    vertex -2.4946817313976934 -0.7325046477877194 20.999999999999993
    vertex -2.365043187921748 -1.0800790338049064 20.999999999999993
  endloop
endfacet
facet normal 0.0 0.0 1.0
  outer loop
    vertex -2.3650431879217497 1.0800790338049016 20.999999999999993
    vertex -2.365043187921748 -1.0800790338049064 20.999999999999993
    vertex -2.1872591853610737 1.4056661253845506 20.999999999999993
  endloop
endfacet
facet normal 0.0 0.0 1.0
  outer loop
    vertex -2.1872591853610737 1.4056661253845506 20.999999999999993
    vertex -2.365043187921748 -1.0800790338049064 20.999999999999993
    vertex -2.187259185361071 -1.4056661253845553 20.999999999999993
  endloop
endfacet
facet normal 0.0 0.0 1.0
  outer loop
    vertex -2.1872591853610737 1.4056661253845506 20.999999999999993
    vertex -2.187259185361071 -1.4056661253845553 20.999999999999993
    vertex -1.9649488933210744 1.7026379082577385 20.999999999999993
  endloop
endfacet
facet normal 0.0 0.0 1.0
  outer loop
    vertex -1.9649488933210744 1.7026379082577385 20.999999999999993
    vertex -2.187259185361071 -1.4056661253845553 20.999999999999993
    vertex -1.9649488933210717 -1.7026379082577427 20.999999999999993
  endloop
endfacet
facet normal 0.0 0.0 1.0
  outer loop
    vertex -1.9649488933210744 1.7026379082577385 20.999999999999993
    vertex -1.9649488933210717 -1.7026379082577427 20.999999999999993
    vertex -1.7026379082577452 1.964948893321069 20.999999999999993
  endloop
endfacet
facet normal 0.0 0.0 1.0
  outer loop
    vertex -1.7026379082577452 1.964948893321069 20.999999999999993
    vertex -1.9649488933210717 -1.7026379082577427 20.999999999999993
    vertex -1.702637908257741 -1.9649488933210726 20.999999999999993
  endloop
endfacet
facet normal 0.0 0.0 1.0
  outer loop
    vertex -1.7026379082577452 1.964948893321069 20.999999999999993
    vertex -1.702637908257741 -1.9649488933210726 20.999999999999993
    vertex -1.4056661253845577 2.1872591853610692 20.999999999999993
  endloop
endfacet
facet normal 0.0 0.0 1.0
  outer loop
    vertex -1.4056661253845577 2.1872591853610692 20.999999999999993
    vertex -1.702637908257741 -1.9649488933210726 20.999999999999993
    vertex -1.4056661253845533 -2.187259185361072 20.999999999999993
  endloop
endfacet
facet normal 0.0 0.0 1.0
  outer loop
    vertex -1.4056661253845577 2.1872591853610692 20.999999999999993
    vertex -1.4056661253845533 -2.187259185361072 20.999999999999993
    vertex -1.297055077566403 2.246565304377452 20.999999999999993
  endloop
endfacet
facet normal 0.0 0.0 1.0
  outer loop
    vertex -1.297055077566403 2.246565304377452 20.999999999999993
    vertex -1.4056661253845533 -2.187259185361072 20.999999999999993
    vertex -1.2970550775664018 -2.246565304377453 20.999999999999993
  endloop
endfacet
facet normal 0.0 0.0 1.0
  outer loop
    vertex -1.297055077566403 2.246565304377452 20.999999999999993
    vertex -1.2970550775664018 -2.246565304377453 20.999999999999993
    vertex -1.0800790338049093 2.365043187921746 20.999999999999993
  endloop
endfacet
facet normal 0.0 0.0 1.0
  outer loop
    vertex -1.0800790338049093 2.365043187921746 20.999999999999993
    vertex -1.2970550775664018 -2.246565304377453 20.999999999999993
    vertex -1.080079033804904 -2.3650431879217484 20.999999999999993
  endloop
endfacet
facet normal 0.0 0.0 1.0
  outer loop
    vertex -1.0800790338049093 2.365043187921746 20.999999999999993
    vertex -1.080079033804904 -2.3650431879217484 20.999999999999993
    vertex -0.7325046477877221 2.494681731397692 20.999999999999993
  endloop
endfacet
facet normal 0.0 0.0 1.0
  outer loop
    vertex -0.7325046477877221 2.494681731397692 20.999999999999993
    vertex -1.080079033804904 -2.3650431879217484 20.999999999999993
    vertex -0.7325046477877168 -2.4946817313976934 20.999999999999993
  endloop
endfacet
facet normal 0.0 0.0 1.0
  outer loop
    vertex -0.7325046477877221 2.494681731397692 20.999999999999993
    vertex -0.7325046477877168 -2.4946817313976934 20.999999999999993
    vertex -0.3700185795105467 2.5735357488904245 20.999999999999993
  endloop
endfacet
facet normal 0.0 0.0 1.0
  outer loop
    vertex -0.3700185795105467 2.5735357488904245 20.999999999999993
    vertex -0.7325046477877168 -2.4946817313976934 20.999999999999993
    vertex -0.37001857951054107 -2.5735357488904254 20.999999999999993
  endloop
endfacet
facet normal 0.0 0.0 1.0
  outer loop
    vertex -0.3700185795105467 2.5735357488904245 20.999999999999993
    vertex -0.37001857951054107 -2.5735357488904254 20.999999999999993
    vertex -5.535677277373306e-15 2.6 20.999999999999993
  endloop
endfacet
facet normal 0.0 0.0 1.0
  outer loop
    vertex -5.535677277373306e-15 2.6 20.999999999999993
    vertex -0.37001857951054107 -2.5735357488904254 20.999999999999993
    vertex 1.1856986900396233e-16 -2.6 20.999999999999993
  endloop
endfacet
facet normal 0.0 0.0 1.0
  outer loop
    vertex -5.535677277373306e-15 2.6 20.999999999999993
    vertex 1.1856986900396233e-16 -2.6 20.999999999999993
    vertex 0.3700185795105357 2.5735357488904262 20.999999999999993
  endloop
endfacet
facet normal 0.0 0.0 1.0
  outer loop
    vertex 0.3700185795105357 2.5735357488904262 20.999999999999993
    vertex 1.1856986900396233e-16 -2.6 20.999999999999993
    vertex 0.3700185795105413 -2.573535748890425 20.999999999999993
  endloop
endfacet
facet normal 0.0 0.0 1.0
  outer loop
    vertex 0.3700185795105357 2.5735357488904262 20.999999999999993
    vertex 0.3700185795105413 -2.573535748890425 20.999999999999993
    vertex 0.7325046477877116 2.494681731397695 20.999999999999993
  endloop
endfacet
facet normal 0.0 0.0 1.0
  outer loop
    vertex 0.7325046477877116 2.494681731397695 20.999999999999993
    vertex 0.3700185795105413 -2.573535748890425 20.999999999999993
    vertex 0.7325046477877168 -2.494681731397693 20.999999999999993
  endloop
endfacet
facet normal 0.0 0.0 1.0
  outer loop
    vertex 0.7325046477877116 2.494681731397695 20.999999999999993
    vertex 0.7325046477877168 -2.494681731397693 20.999999999999993
    vertex 1.0450737626161233 2.3780994790451957 20.999999999999993
  endloop
endfacet
facet normal 0.0 0.0 1.0
  outer loop
    vertex 1.0450737626161233 2.3780994790451957 20.999999999999993
    vertex 0.7325046477877168 -2.494681731397693 20.999999999999993
    vertex 1.0800790338049042 -2.365043187921748 20.999999999999993
  endloop
endfacet
facet normal 0.0 0.0 1.0
  outer loop
    vertex 1.0450737626161233 2.3780994790451957 20.999999999999993
    vertex 1.0800790338049042 -2.365043187921748 20.999999999999993
    vertex 2.5799469117361125 -0.2803788100211321 20.999999999999993
  endloop
endfacet
facet normal 0.0 0.0 1.0
  outer loop
    vertex 2.5799469117361125 -0.2803788100211321 20.999999999999993
    vertex 1.0800790338049042 -2.365043187921748 20.999999999999993
    vertex 1.2970550775664023 -2.246565304377452 20.999999999999993
  endloop
endfacet
facet normal 0.0 0.0 1.0
  outer loop
    vertex 2.5799469117361125 -0.2803788100211321 20.999999999999993
    vertex 1.2970550775664023 -2.246565304377452 20.999999999999993
    vertex 1.4056661253845533 -2.187259185361071 20.999999999999993
  endloop
endfacet
facet normal 0.0 0.0 1.0
  outer loop
    vertex 2.5799469117361125 -0.2803788100211321 20.999999999999993
    vertex 1.4056661253845533 -2.187259185361071 20.999999999999993
    vertex 1.702637908257741 -1.9649488933210717 20.999999999999993
  endloop
endfacet
facet normal 0.0 0.0 1.0
  outer loop
    vertex 2.5799469117361125 -0.2803788100211321 20.999999999999993
    vertex 1.702637908257741 -1.9649488933210717 20.999999999999993
    vertex 1.9649488933210708 -1.7026379082577412 20.999999999999993
  endloop
endfacet
facet normal 0.0 0.0 1.0
  outer loop
    vertex 2.5799469117361125 -0.2803788100211321 20.999999999999993
    vertex 1.9649488933210708 -1.7026379082577412 20.999999999999993
    vertex 2.187259185361071 -1.405666125384554 20.999999999999993
  endloop
endfacet
facet normal 0.0 0.0 1.0
  outer loop
    vertex 2.5799469117361125 -0.2803788100211321 20.999999999999993
    vertex 2.187259185361071 -1.405666125384554 20.999999999999993
    vertex 2.365043187921748 -1.0800790338049047 20.999999999999993
  endloop
endfacet
facet normal 0.0 0.0 1.0
  outer loop
    vertex 2.5799469117361125 -0.2803788100211321 20.999999999999993
    vertex 2.365043187921748 -1.0800790338049047 20.999999999999993
    vertex 2.494681731397693 -0.7325046477877174 20.999999999999993
  endloop
endfacet
facet normal 0.0 0.0 1.0
  outer loop
    vertex 2.5799469117361125 -0.2803788100211321 20.999999999999993
    vertex 2.494681731397693 -0.7325046477877174 20.999999999999993
    vertex 2.5735357488904245 -0.37001857951054157 20.999999999999993
  endloop
endfacet
facet normal 0.9974521146102537 -0.07133918319923122 -0.0
  outer loop
    vertex -2.5735357488904262 0.37001857951053857 20.999999999999993
    vertex -2.600000000000001 -2.6265895393657152e-15 35.0
    vertex -2.600000000000001 -2.6265895393657152e-15 20.999999999999993
  endloop
endfacet
facet normal 0.9974521146102537 -0.07133918319923122 -0.0
  outer loop
    vertex -2.600000000000001 -2.6265895393657152e-15 35.0
    vertex -2.5735357488904262 0.37001857951053857 20.999999999999993
    vertex -2.5735357488904262 0.37001857951053857 35.0
  endloop
endfacet
facet normal 0.8776789895672564 -0.4792489867200557 -0.0
  outer loop
    vertex -2.1872591853610737 1.4056661253845506 20.999999999999993
    vertex -2.3650431879217497 1.0800790338049016 35.0
    vertex -2.3650431879217497 1.0800790338049016 20.999999999999993
  endloop
endfacet
facet normal 0.8776789895672564 -0.4792489867200557 -0.0
  outer loop
    vertex -2.3650431879217497 1.0800790338049016 35.0
    vertex -2.1872591853610737 1.4056661253845506 20.999999999999993
    vertex -2.1872591853610737 1.4056661253845506 35.0
  endloop
endfacet
facet normal 0.800541240924361 -0.5992776665113462 -0.0
  outer loop
    vertex -1.9649488933210744 1.7026379082577385 20.999999999999993
    vertex -2.1872591853610737 1.4056661253845506 35.0
    vertex -2.1872591853610737 1.4056661253845506 20.999999999999993
  endloop
endfacet
facet normal 0.800541240924361 -0.5992776665113462 -0.0
  outer loop
    vertex -2.1872591853610737 1.4056661253845506 35.0
    vertex -1.9649488933210744 1.7026379082577385 20.999999999999993
    vertex -1.9649488933210744 1.7026379082577385 35.0
  endloop
endfacet
facet normal 0.9771468659711597 -0.21256528955297574 -0.0
  outer loop
    vertex -2.494681731397695 0.7325046477877143 20.999999999999993
    vertex -2.5735357488904262 0.37001857951053857 35.0
    vertex -2.5735357488904262 0.37001857951053857 20.999999999999993
  endloop
endfacet
facet normal 0.9771468659711597 -0.21256528955297574 -0.0
  outer loop
    vertex -2.5735357488904262 0.37001857951053857 35.0
    vertex -2.494681731397695 0.7325046477877143 20.999999999999993
    vertex -2.494681731397695 0.7325046477877143 35.0
  endloop
endfacet
facet normal 0.936949724999762 -0.34946417959909754 -0.0
  outer loop
    vertex -2.3650431879217497 1.0800790338049016 20.999999999999993
    vertex -2.494681731397695 0.7325046477877143 35.0
    vertex -2.494681731397695 0.7325046477877143 20.999999999999993
  endloop
endfacet
facet normal 0.936949724999762 -0.34946417959909754 -0.0
  outer loop
    vertex -2.494681731397695 0.7325046477877143 35.0
    vertex -2.3650431879217497 1.0800790338049016 20.999999999999993
    vertex -2.3650431879217497 1.0800790338049016 35.0
  endloop
endfacet
facet normal 0.7071067811865495 -0.7071067811865456 -0.0
  outer loop
    vertex -1.7026379082577452 1.964948893321069 20.999999999999993
    vertex -1.9649488933210744 1.7026379082577385 35.0
    vertex -1.9649488933210744 1.7026379082577385 20.999999999999993
  endloop
endfacet
facet normal 0.7071067811865495 -0.7071067811865456 -0.0
  outer loop
    vertex -1.9649488933210744 1.7026379082577385 35.0
    vertex -1.7026379082577452 1.964948893321069 20.999999999999993
    vertex -1.7026379082577452 1.964948893321069 35.0
  endloop
endfacet
facet normal 0.599277666511348 -0.8005412409243599 -0.0
  outer loop
    vertex -1.4056661253845577 2.1872591853610692 35.0
    vertex -1.7026379082577452 1.964948893321069 20.999999999999993
    vertex -1.4056661253845577 2.1872591853610692 20.999999999999993
  endloop
endfacet
facet normal 0.599277666511348 -0.8005412409243599 -0.0
  outer loop
    vertex -1.7026379082577452 1.964948893321069 20.999999999999993
    vertex -1.4056661253845577 2.1872591853610692 35.0
    vertex -1.7026379082577452 1.964948893321069 35.0
  endloop
endfacet
facet normal 0.9974521146102535 0.07133918319923312 0.0
  outer loop
    vertex -2.600000000000001 -2.6265895393657152e-15 20.999999999999993
    vertex -2.573535748890426 -0.3700185795105438 35.0
    vertex -2.573535748890426 -0.3700185795105438 20.999999999999993
  endloop
endfacet
facet normal 0.9974521146102535 0.07133918319923312 0.0
  outer loop
    vertex -2.573535748890426 -0.3700185795105438 35.0
    vertex -2.600000000000001 -2.6265895393657152e-15 20.999999999999993
    vertex -2.600000000000001 -2.6265895393657152e-15 35.0
  endloop
endfacet
facet normal 0.9771468659711593 0.21256528955297765 0.0
  outer loop
    vertex -2.573535748890426 -0.3700185795105438 20.999999999999993
    vertex -2.4946817313976934 -0.7325046477877194 35.0
    vertex -2.4946817313976934 -0.7325046477877194 20.999999999999993
  endloop
endfacet
facet normal 0.9771468659711593 0.21256528955297765 0.0
  outer loop
    vertex -2.4946817313976934 -0.7325046477877194 35.0
    vertex -2.573535748890426 -0.3700185795105438 20.999999999999993
    vertex -2.573535748890426 -0.3700185795105438 35.0
  endloop
endfacet
facet normal 0.9369497249997615 0.3494641795990993 0.0
  outer loop
    vertex -2.4946817313976934 -0.7325046477877194 20.999999999999993
    vertex -2.365043187921748 -1.0800790338049064 35.0
    vertex -2.365043187921748 -1.0800790338049064 20.999999999999993
  endloop
endfacet
facet normal 0.9369497249997615 0.3494641795990993 0.0
  outer loop
    vertex -2.365043187921748 -1.0800790338049064 35.0
    vertex -2.4946817313976934 -0.7325046477877194 20.999999999999993
    vertex -2.4946817313976934 -0.7325046477877194 35.0
  endloop
endfacet
facet normal 0.8776789895672554 0.4792489867200576 0.0
  outer loop
    vertex -2.365043187921748 -1.0800790338049064 20.999999999999993
    vertex -2.187259185361071 -1.4056661253845553 35.0
    vertex -2.187259185361071 -1.4056661253845553 20.999999999999993
  endloop
endfacet
facet normal 0.8776789895672554 0.4792489867200576 0.0
  outer loop
    vertex -2.187259185361071 -1.4056661253845553 35.0
    vertex -2.365043187921748 -1.0800790338049064 20.999999999999993
    vertex -2.365043187921748 -1.0800790338049064 35.0
  endloop
endfacet
facet normal 0.8005412409243606 0.5992776665113466 0.0
  outer loop
    vertex -2.187259185361071 -1.4056661253845553 20.999999999999993
    vertex -1.9649488933210717 -1.7026379082577427 35.0
    vertex -1.9649488933210717 -1.7026379082577427 20.999999999999993
  endloop
endfacet
facet normal 0.8005412409243606 0.5992776665113466 0.0
  outer loop
    vertex -1.9649488933210717 -1.7026379082577427 35.0
    vertex -2.187259185361071 -1.4056661253845553 20.999999999999993
    vertex -2.187259185361071 -1.4056661253845553 35.0
  endloop
endfacet
facet normal 0.7071067811865467 0.7071067811865486 0.0
  outer loop
    vertex -1.9649488933210717 -1.7026379082577427 35.0
    vertex -1.702637908257741 -1.9649488933210726 20.999999999999993
    vertex -1.9649488933210717 -1.7026379082577427 20.999999999999993
  endloop
endfacet
facet normal 0.7071067811865467 0.7071067811865486 0.0
  outer loop
    vertex -1.702637908257741 -1.9649488933210726 20.999999999999993
    vertex -1.9649488933210717 -1.7026379082577427 35.0
    vertex -1.702637908257741 -1.9649488933210726 35.0
  endloop
endfacet
facet normal 0.5992776665113464 0.8005412409243607 0.0
  outer loop
    vertex -1.702637908257741 -1.9649488933210726 35.0
    vertex -1.4056661253845533 -2.187259185361072 20.999999999999993
    vertex -1.702637908257741 -1.9649488933210726 20.999999999999993
  endloop
endfacet
facet normal 0.5992776665113464 0.8005412409243607 0.0
  outer loop
    vertex -1.4056661253845533 -2.187259185361072 20.999999999999993
    vertex -1.702637908257741 -1.9649488933210726 35.0
    vertex -1.4056661253845533 -2.187259185361072 35.0
  endloop
endfacet
facet normal 0.4792489867200565 0.8776789895672559 0.0
  outer loop
    vertex -1.4056661253845533 -2.187259185361072 35.0
    vertex -1.2970550775664018 -2.246565304377453 20.999999999999993
    vertex -1.4056661253845533 -2.187259185361072 20.999999999999993
  endloop
endfacet
facet normal 0.4792489867200565 0.8776789895672559 0.0
  outer loop
    vertex -1.2970550775664018 -2.246565304377453 20.999999999999993
    vertex -1.4056661253845533 -2.187259185361072 35.0
    vertex -1.2970550775664018 -2.246565304377453 35.0
  endloop
endfacet
facet normal 0.47924898672005617 0.8776789895672562 0.0
  outer loop
    vertex -1.2970550775664018 -2.246565304377453 35.0
    vertex -1.080079033804904 -2.3650431879217484 20.999999999999993
    vertex -1.2970550775664018 -2.246565304377453 20.999999999999993
  endloop
endfacet
facet normal 0.47924898672005617 0.8776789895672562 0.0
  outer loop
    vertex -1.080079033804904 -2.3650431879217484 20.999999999999993
    vertex -1.2970550775664018 -2.246565304377453 35.0
    vertex -1.080079033804904 -2.3650431879217484 35.0
  endloop
endfacet
facet normal 0.34946417959909754 0.936949724999762 0.0
  outer loop
    vertex -1.080079033804904 -2.3650431879217484 35.0
    vertex -0.7325046477877168 -2.4946817313976934 20.999999999999993
    vertex -1.080079033804904 -2.3650431879217484 20.999999999999993
  endloop
endfacet
facet normal 0.34946417959909754 0.936949724999762 0.0
  outer loop
    vertex -0.7325046477877168 -2.4946817313976934 20.999999999999993
    vertex -1.080079033804904 -2.3650431879217484 35.0
    vertex -0.7325046477877168 -2.4946817313976934 35.0
  endloop
endfacet
facet normal 0.21256528955297666 0.9771468659711595 0.0
  outer loop
    vertex -0.7325046477877168 -2.4946817313976934 35.0
    vertex -0.37001857951054107 -2.5735357488904254 20.999999999999993
    vertex -0.7325046477877168 -2.4946817313976934 20.999999999999993
  endloop
endfacet
facet normal 0.21256528955297666 0.9771468659711595 0.0
  outer loop
    vertex -0.37001857951054107 -2.5735357488904254 20.999999999999993
    vertex -0.7325046477877168 -2.4946817313976934 35.0
    vertex -0.37001857951054107 -2.5735357488904254 35.0
  endloop
endfacet
facet normal 0.07133918319923217 0.9974521146102536 0.0
  outer loop
    vertex -0.37001857951054107 -2.5735357488904254 35.0
    vertex 1.1856986900396233e-16 -2.6 20.999999999999993
    vertex -0.37001857951054107 -2.5735357488904254 20.999999999999993
  endloop
endfacet
facet normal 0.07133918319923217 0.9974521146102536 0.0
  outer loop
    vertex 1.1856986900396233e-16 -2.6 20.999999999999993
    vertex -0.37001857951054107 -2.5735357488904254 35.0
    vertex 1.1856986900396233e-16 -2.6 35.0
  endloop
endfacet
facet normal -0.07133918319923312 0.9974521146102535 -0.0
  outer loop
    vertex 1.1856986900396233e-16 -2.6 35.0
    vertex 0.3700185795105413 -2.573535748890425 20.999999999999993
    vertex 1.1856986900396233e-16 -2.6 20.999999999999993
  endloop
endfacet
facet normal -0.07133918319923312 0.9974521146102535 -0.0
  outer loop
    vertex 0.3700185795105413 -2.573535748890425 20.999999999999993
    vertex 1.1856986900396233e-16 -2.6 35.0
    vertex 0.3700185795105413 -2.573535748890425 35.0
  endloop
endfacet
facet normal -0.21256528955297674 0.9771468659711596 -0.0
  outer loop
    vertex 0.3700185795105413 -2.573535748890425 35.0
    vertex 0.7325046477877168 -2.494681731397693 20.999999999999993
    vertex 0.3700185795105413 -2.573535748890425 20.999999999999993
  endloop
endfacet
facet normal -0.21256528955297674 0.9771468659711596 -0.0
  outer loop
    vertex 0.7325046477877168 -2.494681731397693 20.999999999999993
    vertex 0.3700185795105413 -2.573535748890425 35.0
    vertex 0.7325046477877168 -2.494681731397693 35.0
  endloop
endfacet
facet normal -0.3494641795990983 0.9369497249997619 -0.0
  outer loop
    vertex 0.7325046477877168 -2.494681731397693 35.0
    vertex 1.0800790338049042 -2.365043187921748 20.999999999999993
    vertex 0.7325046477877168 -2.494681731397693 20.999999999999993
  endloop
endfacet
facet normal -0.3494641795990983 0.9369497249997619 -0.0
  outer loop
    vertex 1.0800790338049042 -2.365043187921748 20.999999999999993
    vertex 0.7325046477877168 -2.494681731397693 35.0
    vertex 1.0800790338049042 -2.365043187921748 35.0
  endloop
endfacet
facet normal -0.47924898672005656 0.8776789895672558 -0.0
  outer loop
    vertex 1.0800790338049042 -2.365043187921748 35.0
    vertex 1.2970550775664023 -2.246565304377452 20.999999999999993
    vertex 1.0800790338049042 -2.365043187921748 20.999999999999993
  endloop
endfacet
facet normal -0.47924898672005656 0.8776789895672558 -0.0
  outer loop
    vertex 1.2970550775664023 -2.246565304377452 20.999999999999993
    vertex 1.0800790338049042 -2.365043187921748 35.0
    vertex 1.2970550775664023 -2.246565304377452 35.0
  endloop
endfacet
facet normal -0.4792489867200567 0.8776789895672559 -0.0
  outer loop
    vertex 1.2970550775664023 -2.246565304377452 35.0
    vertex 1.4056661253845533 -2.187259185361071 20.999999999999993
    vertex 1.2970550775664023 -2.246565304377452 20.999999999999993
  endloop
endfacet
facet normal -0.4792489867200567 0.8776789895672559 -0.0
  outer loop
    vertex 1.4056661253845533 -2.187259185361071 20.999999999999993
    vertex 1.2970550775664023 -2.246565304377452 35.0
    vertex 1.4056661253845533 -2.187259185361071 35.0
  endloop
endfacet
facet normal -0.5992776665113468 0.8005412409243606 -0.0
  outer loop
    vertex 1.4056661253845533 -2.187259185361071 35.0
    vertex 1.702637908257741 -1.9649488933210717 20.999999999999993
    vertex 1.4056661253845533 -2.187259185361071 20.999999999999993
  endloop
endfacet
facet normal -0.5992776665113468 0.8005412409243606 -0.0
  outer loop
    vertex 1.702637908257741 -1.9649488933210717 20.999999999999993
    vertex 1.4056661253845533 -2.187259185361071 35.0
    vertex 1.702637908257741 -1.9649488933210717 35.0
  endloop
endfacet
facet normal -0.707106781186548 0.7071067811865471 -0.0
  outer loop
    vertex 1.9649488933210708 -1.7026379082577412 35.0
    vertex 1.702637908257741 -1.9649488933210717 20.999999999999993
    vertex 1.702637908257741 -1.9649488933210717 35.0
  endloop
endfacet
facet normal -0.707106781186548 0.7071067811865471 -0.0
  outer loop
    vertex 1.702637908257741 -1.9649488933210717 20.999999999999993
    vertex 1.9649488933210708 -1.7026379082577412 35.0
    vertex 1.9649488933210708 -1.7026379082577412 20.999999999999993
  endloop
endfacet
facet normal -0.8005412409243599 0.599277666511348 -0.0
  outer loop
    vertex 2.187259185361071 -1.405666125384554 35.0
    vertex 1.9649488933210708 -1.7026379082577412 20.999999999999993
    vertex 1.9649488933210708 -1.7026379082577412 35.0
  endloop
endfacet
facet normal -0.8005412409243599 0.599277666511348 -0.0
  outer loop
    vertex 1.9649488933210708 -1.7026379082577412 20.999999999999993
    vertex 2.187259185361071 -1.405666125384554 35.0
    vertex 2.187259185361071 -1.405666125384554 20.999999999999993
  endloop
endfacet
facet normal -0.8776789895672554 0.4792489867200571 -0.0
  outer loop
    vertex 2.365043187921748 -1.0800790338049047 35.0
    vertex 2.187259185361071 -1.405666125384554 20.999999999999993
    vertex 2.187259185361071 -1.405666125384554 35.0
  endloop
endfacet
facet normal -0.8776789895672554 0.4792489867200571 -0.0
  outer loop
    vertex 2.187259185361071 -1.405666125384554 20.999999999999993
    vertex 2.365043187921748 -1.0800790338049047 35.0
    vertex 2.365043187921748 -1.0800790338049047 20.999999999999993
  endloop
endfacet
facet normal -0.9369497249997621 0.3494641795990975 -0.0
  outer loop
    vertex 2.494681731397693 -0.7325046477877174 35.0
    vertex 2.365043187921748 -1.0800790338049047 20.999999999999993
    vertex 2.365043187921748 -1.0800790338049047 35.0
  endloop
endfacet
facet normal -0.9369497249997621 0.3494641795990975 -0.0
  outer loop
    vertex 2.365043187921748 -1.0800790338049047 20.999999999999993
    vertex 2.494681731397693 -0.7325046477877174 35.0
    vertex 2.494681731397693 -0.7325046477877174 20.999999999999993
  endloop
endfacet
facet normal -0.21256528955297474 -0.9771468659711601 -0.0
  outer loop
    vertex 0.7325046477877116 2.494681731397695 35.0
    vertex 0.3700185795105357 2.5735357488904262 20.999999999999993
    vertex 0.7325046477877116 2.494681731397695 20.999999999999993
  endloop
endfacet
facet normal -0.21256528955297474 -0.9771468659711601 -0.0
  outer loop
    vertex 0.3700185795105357 2.5735357488904262 20.999999999999993
    vertex 0.7325046477877116 2.494681731397695 35.0
    vertex 0.3700185795105357 2.5735357488904262 35.0
  endloop
endfacet
facet normal 0.4792489867200583 -0.8776789895672549 -0.0
  outer loop
    vertex -1.297055077566403 2.246565304377452 35.0
    vertex -1.4056661253845577 2.1872591853610692 20.999999999999993
    vertex -1.297055077566403 2.246565304377452 20.999999999999993
  endloop
endfacet
facet normal 0.4792489867200583 -0.8776789895672549 -0.0
  outer loop
    vertex -1.4056661253845577 2.1872591853610692 20.999999999999993
    vertex -1.297055077566403 2.246565304377452 35.0
    vertex -1.4056661253845577 2.1872591853610692 35.0
  endloop
endfacet
facet normal 0.4792489867200578 -0.8776789895672552 -0.0
  outer loop
    vertex -1.0800790338049093 2.365043187921746 35.0
    vertex -1.297055077566403 2.246565304377452 20.999999999999993
    vertex -1.0800790338049093 2.365043187921746 20.999999999999993
  endloop
endfacet
facet normal 0.4792489867200578 -0.8776789895672552 -0.0
  outer loop
    vertex -1.297055077566403 2.246565304377452 20.999999999999993
    vertex -1.0800790338049093 2.365043187921746 35.0
    vertex -1.297055077566403 2.246565304377452 35.0
  endloop
endfacet
facet normal -0.9771468659711599 0.2125652895529757 -0.0
  outer loop
    vertex 2.5735357488904245 -0.37001857951054157 35.0
    vertex 2.494681731397693 -0.7325046477877174 20.999999999999993
    vertex 2.494681731397693 -0.7325046477877174 35.0
  endloop
endfacet
facet normal -0.9771468659711599 0.2125652895529757 -0.0
  outer loop
    vertex 2.494681731397693 -0.7325046477877174 20.999999999999993
    vertex 2.5735357488904245 -0.37001857951054157 35.0
    vertex 2.5735357488904245 -0.37001857951054157 20.999999999999993
  endloop
endfacet
facet normal -0.9974521146102534 0.07133918319923528 -0.0
  outer loop
    vertex 2.5799469117361125 -0.2803788100211321 35.0
    vertex 2.5735357488904245 -0.37001857951054157 20.999999999999993
    vertex 2.5735357488904245 -0.37001857951054157 35.0
  endloop
endfacet
facet normal -0.9974521146102534 0.07133918319923528 -0.0
  outer loop
    vertex 2.5735357488904245 -0.37001857951054157 20.999999999999993
    vertex 2.5799469117361125 -0.2803788100211321 35.0
    vertex 2.5799469117361125 -0.2803788100211321 20.999999999999993
  endloop
endfacet
facet normal -0.8660254047305483 -0.4999999983612903 -0.0
  outer loop
    vertex 1.0450737626161233 2.3780994790451957 35.0
    vertex 2.5799469117361125 -0.2803788100211321 20.999999999999993
    vertex 2.5799469117361125 -0.2803788100211321 35.0
  endloop
endfacet
facet normal -0.8660254047305483 -0.4999999983612903 -0.0
  outer loop
    vertex 2.5799469117361125 -0.2803788100211321 20.999999999999993
    vertex 1.0450737626161233 2.3780994790451957 35.0
    vertex 1.0450737626161233 2.3780994790451957 20.999999999999993
  endloop
endfacet
facet normal -0.349464179599097 -0.9369497249997624 -0.0
  outer loop
    vertex 1.0450737626161233 2.3780994790451957 35.0
    vertex 0.7325046477877116 2.494681731397695 20.999999999999993
    vertex 1.0450737626161233 2.3780994790451957 20.999999999999993
  endloop
endfacet
facet normal -0.349464179599097 -0.9369497249997624 -0.0
  outer loop
    vertex 0.7325046477877116 2.494681731397695 20.999999999999993
    vertex 1.0450737626161233 2.3780994790451957 35.0
    vertex 0.7325046477877116 2.494681731397695 35.0
  endloop
endfacet
facet normal 0.07133918319923407 -0.9974521146102534 -0.0
  outer loop
    vertex -5.535677277373306e-15 2.6 35.0
    vertex -0.3700185795105467 2.5735357488904245 20.999999999999993
    vertex -5.535677277373306e-15 2.6 20.999999999999993
  endloop
endfacet
facet normal 0.07133918319923407 -0.9974521146102534 -0.0
  outer loop
    vertex -0.3700185795105467 2.5735357488904245 20.999999999999993
    vertex -5.535677277373306e-15 2.6 35.0
    vertex -0.3700185795105467 2.5735357488904245 35.0
  endloop
endfacet
facet normal -0.07133918319923027 -0.9974521146102537 -0.0
  outer loop
    vertex 0.3700185795105357 2.5735357488904262 35.0
    vertex -5.535677277373306e-15 2.6 20.999999999999993
    vertex 0.3700185795105357 2.5735357488904262 20.999999999999993
  endloop
endfacet
facet normal -0.07133918319923027 -0.9974521146102537 -0.0
  outer loop
    vertex -5.535677277373306e-15 2.6 20.999999999999993
    vertex 0.3700185795105357 2.5735357488904262 35.0
    vertex -5.535677277373306e-15 2.6 35.0
  endloop
endfacet
facet normal 0.34946417959910003 -0.9369497249997611 -0.0
  outer loop
    vertex -0.7325046477877221 2.494681731397692 35.0
    vertex -1.0800790338049093 2.365043187921746 20.999999999999993
    vertex -0.7325046477877221 2.494681731397692 20.999999999999993
  endloop
endfacet
facet normal 0.34946417959910003 -0.9369497249997611 -0.0
  outer loop
    vertex -1.0800790338049093 2.365043187921746 20.999999999999993
    vertex -0.7325046477877221 2.494681731397692 35.0
    vertex -1.0800790338049093 2.365043187921746 35.0
  endloop
endfacet
facet normal 0.21256528955297863 -0.9771468659711592 -0.0
  outer loop
    vertex -0.3700185795105467 2.5735357488904245 35.0
    vertex -0.7325046477877221 2.494681731397692 20.999999999999993
    vertex -0.3700185795105467 2.5735357488904245 20.999999999999993
  endloop
endfacet
facet normal 0.21256528955297863 -0.9771468659711592 -0.0
  outer loop
    vertex -0.7325046477877221 2.494681731397692 20.999999999999993
    vertex -0.3700185795105467 2.5735357488904245 35.0
    vertex -0.7325046477877221 2.494681731397692 35.0
  endloop
endfacet
facet normal -0.0 1.0 -0.0
  outer loop
    vertex -1.7897858266666664 3.1 35.0
    vertex 1.7897858266666664 3.1 0.0
    vertex -1.7897858266666664 3.1 0.0
  endloop
endfacet
facet normal -0.0 1.0 -0.0
  outer loop
    vertex 1.7897858266666664 3.1 0.0
    vertex -1.7897858266666664 3.1 35.0
    vertex 1.7897858266666664 3.1 35.0
  endloop
endfacet
facet normal -0.8660254047305489 0.49999999836128917 0.0
  outer loop
    vertex -1.7897858266666664 3.1 35.0
    vertex -3.5795716533333297 -1.0574874309554614e-15 0.0
    vertex -3.5795716533333297 -1.0574874309554614e-15 35.0
  endloop
endfacet
facet normal -0.8660254047305489 0.49999999836128917 0.0
  outer loop
    vertex -3.5795716533333297 -1.0574874309554614e-15 0.0
    vertex -1.7897858266666664 3.1 35.0
    vertex -1.7897858266666664 3.1 0.0
  endloop
endfacet
facet normal -0.8660254047305487 -0.49999999836128944 0.0
  outer loop
    vertex -3.5795716533333297 -1.0574874309554614e-15 35.0
    vertex -1.7897858266666653 -3.100000000000002 0.0
    vertex -1.7897858266666653 -3.100000000000002 35.0
  endloop
endfacet
facet normal -0.8660254047305487 -0.49999999836128944 0.0
  outer loop
    vertex -1.7897858266666653 -3.100000000000002 0.0
    vertex -3.5795716533333297 -1.0574874309554614e-15 35.0
    vertex -3.5795716533333297 -1.0574874309554614e-15 0.0
  endloop
endfacet
facet normal 0.0 -1.0 0.0
  outer loop
    vertex 1.7897858266666666 -3.100000000000002 35.0
    vertex -1.7897858266666653 -3.100000000000002 0.0
    vertex 1.7897858266666666 -3.100000000000002 0.0
  endloop
endfacet
facet normal 0.0 -1.0 0.0
  outer loop
    vertex -1.7897858266666653 -3.100000000000002 0.0
    vertex 1.7897858266666666 -3.100000000000002 35.0
    vertex -1.7897858266666653 -3.100000000000002 35.0
  endloop
endfacet
facet normal 0.8660254047305485 -0.49999999836129005 -0.0
  outer loop
    vertex 3.579571653333334 -3.524958103184872e-16 0.0
    vertex 1.7897858266666666 -3.100000000000002 35.0
    vertex 1.7897858266666666 -3.100000000000002 0.0
  endloop
endfacet
facet normal 0.8660254047305485 -0.49999999836129005 -0.0
  outer loop
    vertex 1.7897858266666666 -3.100000000000002 35.0
    vertex 3.579571653333334 -3.524958103184872e-16 0.0
    vertex 3.579571653333334 -3.524958103184872e-16 35.0
  endloop
endfacet
facet normal 0.8660254047305482 0.4999999983612901 -0.0
  outer loop
    vertex 1.7897858266666664 3.1 0.0
    vertex 3.579571653333334 -3.524958103184872e-16 35.0
    vertex 3.579571653333334 -3.524958103184872e-16 0.0
  endloop
endfacet
facet normal 0.8660254047305482 0.4999999983612901 -0.0
  outer loop
    vertex 3.579571653333334 -3.524958103184872e-16 35.0
    vertex 1.7897858266666664 3.1 0.0
    vertex 1.7897858266666664 3.1 35.0
  endloop
endfacet
facet normal 0.0 0.0 -1.0
  outer loop
    vertex -1.7897858266666664 3.1 0.0
    vertex -1.7897858266666653 -3.100000000000002 0.0
    vertex -3.5795716533333297 -1.0574874309554614e-15 0.0
  endloop
endfacet
facet normal 0.0 0.0 -1.0
  outer loop
    vertex -1.7897858266666653 -3.100000000000002 0.0
    vertex -1.7897858266666664 3.1 0.0
    vertex 1.7897858266666664 3.1 0.0
  endloop
endfacet
facet normal 0.0 0.0 -1.0
  outer loop
    vertex -1.7897858266666653 -3.100000000000002 0.0
    vertex 1.7897858266666664 3.1 0.0
    vertex 1.7897858266666666 -3.100000000000002 0.0
  endloop
endfacet
facet normal 0.0 0.0 -1.0
  outer loop
    vertex 1.7897858266666666 -3.100000000000002 0.0
    vertex 1.7897858266666664 3.1 0.0
    vertex 3.579571653333334 -3.524958103184872e-16 0.0
  endloop
endfacet
endsolid input_shaft
