solid motor_shaft_adapter
facet normal 0.0 0.0 -1.0
  outer loop
    vertex -1.7320508 3.0 0.0
    vertex -1.7320507999999988 -3.000000000000002 0.0
    vertex -3.4641015999999976 -2.114974861910923e-15 0.0
  endloop
endfacet
facet normal 0.0 0.0 -1.0
  outer loop
    vertex -1.7320507999999988 -3.000000000000002 0.0
    vertex -1.7320508 3.0 0.0
    vertex 1.7320508 3.0 0.0
  endloop
endfacet
facet normal 0.0 0.0 -1.0
  outer loop
    vertex -1.7320507999999988 -3.000000000000002 0.0
    vertex 1.7320508 3.0 0.0
    vertex 1.7320507999999994 -3.0000000000000004 0.0
  endloop
endfacet
facet normal 0.0 0.0 -1.0
  outer loop
    vertex 1.7320507999999994 -3.0000000000000004 0.0
    vertex 1.7320508 3.0 0.0
    vertex 3.464101599999999 -1.762479051592436e-16 0.0
  endloop
endfacet
facet normal -0.0 -0.0 1.0
  outer loop
    vertex -3.4641015999999976 -2.114974861910923e-15 35.0
    vertex -2.4863047384206833 -0.2613211581691356 35.0
    vertex -2.4863047384206833 0.2613211581691325 35.0
  endloop
endfacet
facet normal -0.0 -0.0 1.0
  outer loop
    vertex -2.4863047384206833 -0.2613211581691356 35.0
    vertex -3.4641015999999976 -2.114974861910923e-15 35.0
    vertex -2.377641290737883 -0.7725424859373712 35.0
  endloop
endfacet
facet normal -0.0 -0.0 1.0
  outer loop
    vertex -2.377641290737883 -0.7725424859373712 35.0
    vertex -3.4641015999999976 -2.114974861910923e-15 35.0
    vertex -1.7320507999999988 -3.000000000000002 35.0
  endloop
endfacet
facet normal -0.0 -0.0 1.0
  outer loop
    vertex -2.377641290737883 -0.7725424859373712 35.0
    vertex -1.7320507999999988 -3.000000000000002 35.0
    vertex -2.1650635094610946 -1.2500000000000029 35.0
  endloop
endfacet
facet normal -0.0 -0.0 1.0
  outer loop
    vertex -2.1650635094610946 -1.2500000000000029 35.0
    vertex -1.7320507999999988 -3.000000000000002 35.0
    vertex -1.8578620636934837 -1.672826515897148 35.0
  endloop
endfacet
facet normal -0.0 -0.0 1.0
  outer loop
    vertex -1.8578620636934837 -1.672826515897148 35.0
    vertex -1.7320507999999988 -3.000000000000002 35.0
    vertex -1.4694631307311805 -2.0225424859373704 35.0
  endloop
endfacet
facet normal -0.0 -0.0 1.0
  outer loop
    vertex -1.4694631307311805 -2.0225424859373704 35.0
    vertex -1.7320507999999988 -3.000000000000002 35.0
    vertex -1.0168416076894984 -2.283863644106503 35.0
  endloop
endfacet
facet normal -0.0 -0.0 1.0
  outer loop
    vertex -1.0168416076894984 -2.283863644106503 35.0
    vertex -1.7320507999999988 -3.000000000000002 35.0
    vertex -0.5197792270443965 -2.4453690018345147 35.0
  endloop
endfacet
facet normal -0.0 -0.0 1.0
  outer loop
    vertex -0.5197792270443965 -2.4453690018345147 35.0
    vertex -1.7320507999999988 -3.000000000000002 35.0
    vertex 1.7320507999999994 -3.0000000000000004 35.0
  endloop
endfacet
facet normal -0.0 -0.0 1.0
  outer loop
    vertex -0.5197792270443965 -2.4453690018345147 35.0
    vertex 1.7320507999999994 -3.0000000000000004 35.0
    vertex 1.416384724411995e-15 -2.5 35.0
  endloop
endfacet
facet normal -0.0 -0.0 1.0
  outer loop
    vertex 1.416384724411995e-15 -2.5 35.0
    vertex 1.7320507999999994 -3.0000000000000004 35.0
    vertex 0.5197792270443994 -2.4453690018345142 35.0
  endloop
endfacet
facet normal -0.0 -0.0 1.0
  outer loop
    vertex 0.5197792270443994 -2.4453690018345142 35.0
    vertex 1.7320507999999994 -3.0000000000000004 35.0
    vertex 1.016841607689501 -2.283863644106502 35.0
  endloop
endfacet
facet normal -0.0 -0.0 1.0
  outer loop
    vertex 1.016841607689501 -2.283863644106502 35.0
    vertex 1.7320507999999994 -3.0000000000000004 35.0
    vertex 1.4694631307311832 -2.0225424859373686 35.0
  endloop
endfacet
facet normal -0.0 -0.0 1.0
  outer loop
    vertex 1.4694631307311832 -2.0225424859373686 35.0
    vertex 1.7320507999999994 -3.0000000000000004 35.0
    vertex 1.8578620636934855 -1.6728265158971456 35.0
  endloop
endfacet
facet normal -0.0 -0.0 1.0
  outer loop
    vertex 1.8578620636934855 -1.6728265158971456 35.0
    vertex 1.7320507999999994 -3.0000000000000004 35.0
    vertex 3.464101599999999 -1.762479051592436e-16 35.0
  endloop
endfacet
facet normal -0.0 -0.0 1.0
  outer loop
    vertex 1.8578620636934855 -1.6728265158971456 35.0
    vertex 3.464101599999999 -1.762479051592436e-16 35.0
    vertex 2.1650635094610964 -1.2500000000000004 35.0
  endloop
endfacet
facet normal -0.0 -0.0 1.0
  outer loop
    vertex 2.1650635094610964 -1.2500000000000004 35.0
    vertex 3.464101599999999 -1.762479051592436e-16 35.0
    vertex 2.3776412907378837 -0.7725424859373689 35.0
  endloop
endfacet
facet normal -0.0 -0.0 1.0
  outer loop
    vertex 2.3776412907378837 -0.7725424859373689 35.0
    vertex 3.464101599999999 -1.762479051592436e-16 35.0
    vertex 2.4863047384206833 -0.26132115816913387 35.0
  endloop
endfacet
facet normal -0.0 -0.0 1.0
  outer loop
    vertex -3.4641015999999976 -2.114974861910923e-15 35.0
    vertex -2.377641290737884 0.7725424859373681 35.0
    vertex -1.7320508 3.0 35.0
  endloop
endfacet
facet normal -0.0 -0.0 1.0
  outer loop
    vertex -2.377641290737884 0.7725424859373681 35.0
    vertex -3.4641015999999976 -2.114974861910923e-15 35.0
    vertex -2.4863047384206833 0.2613211581691325 35.0
  endloop
endfacet
facet normal -0.0 -0.0 1.0
  outer loop
    vertex -1.7320508 3.0 35.0
    vertex -2.377641290737884 0.7725424859373681 35.0
    vertex -2.1650635094610964 1.2500000000000004 35.0
  endloop
endfacet
facet normal -0.0 -0.0 1.0
  outer loop
    vertex -1.7320508 3.0 35.0
    vertex -2.1650635094610964 1.2500000000000004 35.0
    vertex -1.8578620636934848 1.6728265158971463 35.0
  endloop
endfacet
facet normal -0.0 -0.0 1.0
  outer loop
    vertex -1.7320508 3.0 35.0
    vertex -1.8578620636934848 1.6728265158971463 35.0
    vertex -1.4694631307311814 2.0225424859373695 35.0
  endloop
endfacet
facet normal -0.0 -0.0 1.0
  outer loop
    vertex -1.7320508 3.0 35.0
    vertex -1.4694631307311814 2.0225424859373695 35.0
    vertex -1.0168416076894984 2.2838636441065034 35.0
  endloop
endfacet
facet normal -0.0 -0.0 1.0
  outer loop
    vertex -1.7320508 3.0 35.0
    vertex -1.0168416076894984 2.2838636441065034 35.0
    vertex -0.5197792270443953 2.4453690018345147 35.0
  endloop
endfacet
facet normal -0.0 -0.0 1.0
  outer loop
    vertex -1.7320508 3.0 35.0
    vertex -0.5197792270443953 2.4453690018345147 35.0
    vertex 1.7320508 3.0 35.0
  endloop
endfacet
facet normal -0.0 -0.0 1.0
  outer loop
    vertex 1.7320508 3.0 35.0
    vertex -0.5197792270443953 2.4453690018345147 35.0
    vertex 0.0 2.5 35.0
  endloop
endfacet
facet normal -0.0 -0.0 1.0
  outer loop
    vertex 1.7320508 3.0 35.0
    vertex 0.0 2.5 35.0
    vertex 0.5197792270443983 2.4453690018345142 35.0
  endloop
endfacet
facet normal -0.0 -0.0 1.0
  outer loop
    vertex 1.7320508 3.0 35.0
    vertex 0.5197792270443983 2.4453690018345142 35.0
    vertex 0.9848012627239973 2.2942741832598914 35.0
  endloop
endfacet
facet normal -0.0 -0.0 1.0
  outer loop
    vertex 1.7320508 3.0 35.0
    vertex 0.9848012627239973 2.2942741832598914 35.0
    vertex 2.4863047384206833 -0.26132115816913387 35.0
  endloop
endfacet
facet normal -0.0 -0.0 1.0
  outer loop
    vertex 1.7320508 3.0 35.0
    vertex 2.4863047384206833 -0.26132115816913387 35.0
    vertex 3.464101599999999 -1.762479051592436e-16 35.0
  endloop
endfacet
facet normal 0.8660254047305486 0.4999999983612899 0.0
  outer loop
    vertex 1.7320508 3.0 0.0
    vertex 3.464101599999999 -1.762479051592436e-16 35.0
    vertex 3.464101599999999 -1.762479051592436e-16 0.0
  endloop
endfacet
facet normal 0.8660254047305486 0.4999999983612899 0.0
  outer loop
    vertex 3.464101599999999 -1.762479051592436e-16 35.0
    vertex 1.7320508 3.0 0.0
    vertex 1.7320508 3.0 35.0
  endloop
endfacet
facet normal 0.8660254047305483 -0.4999999983612899 0.0
  outer loop
    vertex 3.464101599999999 -1.762479051592436e-16 0.0
    vertex 1.7320507999999994 -3.0000000000000004 35.0
    vertex 1.7320507999999994 -3.0000000000000004 0.0
  endloop
endfacet
facet normal 0.8660254047305483 -0.4999999983612899 0.0
  outer loop
    vertex 1.7320507999999994 -3.0000000000000004 35.0
    vertex 3.464101599999999 -1.762479051592436e-16 0.0
    vertex 3.464101599999999 -1.762479051592436e-16 35.0
  endloop
endfacet
facet normal 5.087838796623161e-16 -1.0 0.0
  outer loop
    vertex 1.7320507999999994 -3.0000000000000004 35.0
    vertex -1.7320507999999988 -3.000000000000002 0.0
    vertex 1.7320507999999994 -3.0000000000000004 0.0
  endloop
endfacet
facet normal 5.087838796623161e-16 -1.0 0.0
  outer loop
    vertex -1.7320507999999988 -3.000000000000002 0.0
    vertex 1.7320507999999994 -3.0000000000000004 35.0
    vertex -1.7320507999999988 -3.000000000000002 35.0
  endloop
endfacet
facet normal -0.8660254047305486 -0.4999999983612898 -0.0
  outer loop
    vertex -3.4641015999999976 -2.114974861910923e-15 35.0
    vertex -1.7320507999999988 -3.000000000000002 0.0
    vertex -1.7320507999999988 -3.000000000000002 35.0
  endloop
endfacet
facet normal -0.8660254047305486 -0.4999999983612898 -0.0
  outer loop
    vertex -1.7320507999999988 -3.000000000000002 0.0
    vertex -3.4641015999999976 -2.114974861910923e-15 35.0
    vertex -3.4641015999999976 -2.114974861910923e-15 0.0
  endloop
endfacet
facet normal -0.8660254047305489 0.4999999983612893 0.0
  outer loop
    vertex -1.7320508 3.0 35.0
    vertex -3.4641015999999976 -2.114974861910923e-15 0.0
    vertex -3.4641015999999976 -2.114974861910923e-15 35.0
  endloop
endfacet
facet normal -0.8660254047305489 0.4999999983612893 0.0
  outer loop
    vertex -3.4641015999999976 -2.114974861910923e-15 0.0
    vertex -1.7320508 3.0 35.0
    vertex -1.7320508 3.0 0.0
  endloop
endfacet
facet normal -0.0 1.0 0.0
  outer loop
    vertex -1.7320508 3.0 35.0
    vertex 1.7320508 3.0 0.0
    vertex -1.7320508 3.0 0.0
  endloop
endfacet
facet normal -0.0 1.0 0.0
  outer loop
    vertex 1.7320508 3.0 0.0
    vertex -1.7320508 3.0 35.0
    vertex 1.7320508 3.0 35.0
  endloop
endfacet
facet normal -0.9781476007338057 0.20791169081775934 -2.3431397668114006e-20
  outer loop
    vertex 2.4863047384206833 -0.26132115816913387 35.0
    vertex 2.3776412907378837 -0.7725424859373689 21.0
    vertex 2.3776412907378837 -0.7725424859373689 35.0
  endloop
endfacet
facet normal -0.9781476007338057 0.20791169081775934 -2.3431397668114006e-20
  outer loop
    vertex 2.3776412907378837 -0.7725424859373689 21.0
    vertex 2.4863047384206833 -0.26132115816913387 35.0
    vertex 2.4863047384206833 -0.26132115816913387 21.0
  endloop
endfacet
facet normal 0.30901699437494623 -0.951056516295154 1.3930337544608983e-19
  outer loop
    vertex -0.5197792270443953 2.4453690018345147 35.0
    vertex -1.0168416076894984 2.2838636441065034 21.0
    vertex -0.5197792270443953 2.4453690018345147 21.0
  endloop
endfacet
facet normal 0.30901699437494623 -0.951056516295154 1.3930337544608983e-19
  outer loop
    vertex -1.0168416076894984 2.2838636441065034 21.0
    vertex -0.5197792270443953 2.4453690018345147 35.0
    vertex -1.0168416076894984 2.2838636441065034 35.0
  endloop
endfacet
facet normal 0.4999999999999997 -0.8660254037844388 -1.6850617549378224e-20
  outer loop
    vertex -1.0168416076894984 2.2838636441065034 35.0
    vertex -1.4694631307311814 2.0225424859373695 21.0
    vertex -1.0168416076894984 2.2838636441065034 21.0
  endloop
endfacet
facet normal 0.4999999999999997 -0.8660254037844388 -1.6850617549378224e-20
  outer loop
    vertex -1.4694631307311814 2.0225424859373695 21.0
    vertex -1.0168416076894984 2.2838636441065034 35.0
    vertex -1.4694631307311814 2.0225424859373695 35.0
  endloop
endfacet
facet normal 0.6691306063588579 -0.7431448254773946 1.633324005366166e-19
  outer loop
    vertex -1.4694631307311814 2.0225424859373695 35.0
    vertex -1.8578620636934848 1.6728265158971463 21.0
    vertex -1.4694631307311814 2.0225424859373695 21.0
  endloop
endfacet
facet normal 0.6691306063588579 -0.7431448254773946 1.633324005366166e-19
  outer loop
    vertex -1.8578620636934848 1.6728265158971463 21.0
    vertex -1.4694631307311814 2.0225424859373695 35.0
    vertex -1.8578620636934848 1.6728265158971463 35.0
  endloop
endfacet
facet normal 0.8090169943749472 -0.5877852522924737 2.9809211165980662e-19
  outer loop
    vertex -1.8578620636934848 1.6728265158971463 21.0
    vertex -2.1650635094610964 1.2500000000000004 35.0
    vertex -2.1650635094610964 1.2500000000000004 21.0
  endloop
endfacet
facet normal 0.8090169943749472 -0.5877852522924737 2.9809211165980662e-19
  outer loop
    vertex -2.1650635094610964 1.2500000000000004 35.0
    vertex -1.8578620636934848 1.6728265158971463 21.0
    vertex -1.8578620636934848 1.6728265158971463 35.0
  endloop
endfacet
facet normal 0.913545457642601 -0.4067366430758 -9.449696500643371e-20
  outer loop
    vertex -2.1650635094610964 1.2500000000000004 21.0
    vertex -2.377641290737884 0.7725424859373681 35.0
    vertex -2.377641290737884 0.7725424859373681 21.0
  endloop
endfacet
facet normal 0.913545457642601 -0.4067366430758 -9.449696500643371e-20
  outer loop
    vertex -2.377641290737884 0.7725424859373681 35.0
    vertex -2.1650635094610964 1.2500000000000004 21.0
    vertex -2.1650635094610964 1.2500000000000004 35.0
  endloop
endfacet
facet normal 0.9781476007338057 -0.20791169081775918 -2.1367589130097246e-20
  outer loop
    vertex -2.377641290737884 0.7725424859373681 21.0
    vertex -2.4863047384206833 0.2613211581691325 35.0
    vertex -2.4863047384206833 0.2613211581691325 21.0
  endloop
endfacet
facet normal 0.9781476007338057 -0.20791169081775918 -2.1367589130097246e-20
  outer loop
    vertex -2.4863047384206833 0.2613211581691325 35.0
    vertex -2.377641290737884 0.7725424859373681 21.0
    vertex -2.377641290737884 0.7725424859373681 35.0
  endloop
endfacet
facet normal 1.0 6.74449426116393e-16 -5.904106609013391e-34
  outer loop
    vertex -2.4863047384206833 0.2613211581691325 21.0
    vertex -2.4863047384206833 -0.2613211581691356 35.0
    vertex -2.4863047384206833 -0.2613211581691356 21.0
  endloop
endfacet
facet normal 1.0 6.74449426116393e-16 -5.904106609013391e-34
  outer loop
    vertex -2.4863047384206833 -0.2613211581691356 35.0
    vertex -2.4863047384206833 0.2613211581691325 21.0
    vertex -2.4863047384206833 0.2613211581691325 35.0
  endloop
endfacet
facet normal 0.9781476007338055 0.20791169081776045 1.4538315547873545e-19
  outer loop
    vertex -2.4863047384206833 -0.2613211581691356 21.0
    vertex -2.377641290737883 -0.7725424859373712 35.0
    vertex -2.377641290737883 -0.7725424859373712 21.0
  endloop
endfacet
facet normal 0.9781476007338055 0.20791169081776045 1.4538315547873545e-19
  outer loop
    vertex -2.377641290737883 -0.7725424859373712 35.0
    vertex -2.4863047384206833 -0.2613211581691356 21.0
    vertex -2.4863047384206833 -0.2613211581691356 35.0
  endloop
endfacet
facet normal 0.9135454576426003 0.40673664307580154 3.2369061911547533e-19
  outer loop
    vertex -2.377641290737883 -0.7725424859373712 21.0
    vertex -2.1650635094610946 -1.2500000000000029 35.0
    vertex -2.1650635094610946 -1.2500000000000029 21.0
  endloop
endfacet
facet normal 0.9135454576426003 0.40673664307580154 3.2369061911547533e-19
  outer loop
    vertex -2.1650635094610946 -1.2500000000000029 35.0
    vertex -2.377641290737883 -0.7725424859373712 21.0
    vertex -2.377641290737883 -0.7725424859373712 35.0
  endloop
endfacet
facet normal 0.8090169943749472 0.5877852522924735 3.312134573997905e-20
  outer loop
    vertex -2.1650635094610946 -1.2500000000000029 21.0
    vertex -1.8578620636934837 -1.672826515897148 35.0
    vertex -1.8578620636934837 -1.672826515897148 21.0
  endloop
endfacet
facet normal 0.8090169943749472 0.5877852522924735 3.312134573997905e-20
  outer loop
    vertex -1.8578620636934837 -1.672826515897148 35.0
    vertex -2.1650635094610946 -1.2500000000000029 21.0
    vertex -2.1650635094610946 -1.2500000000000029 35.0
  endloop
endfacet
facet normal 0.6691306063588569 0.7431448254773956 1.3830845992355958e-19
  outer loop
    vertex -1.8578620636934837 -1.672826515897148 35.0
    vertex -1.4694631307311805 -2.0225424859373704 21.0
    vertex -1.8578620636934837 -1.672826515897148 21.0
  endloop
endfacet
facet normal 0.6691306063588569 0.7431448254773956 1.3830845992355958e-19
  outer loop
    vertex -1.4694631307311805 -2.0225424859373704 21.0
    vertex -1.8578620636934837 -1.672826515897148 35.0
    vertex -1.4694631307311805 -2.0225424859373704 35.0
  endloop
endfacet
facet normal 0.49999999999999883 0.8660254037844394 4.502531707679699e-20
  outer loop
    vertex -1.4694631307311805 -2.0225424859373704 35.0
    vertex -1.0168416076894984 -2.283863644106503 21.0
    vertex -1.4694631307311805 -2.0225424859373704 21.0
  endloop
endfacet
facet normal 0.49999999999999883 0.8660254037844394 4.502531707679699e-20
  outer loop
    vertex -1.0168416076894984 -2.283863644106503 21.0
    vertex -1.4694631307311805 -2.0225424859373704 35.0
    vertex -1.0168416076894984 -2.283863644106503 35.0
  endloop
endfacet
facet normal 0.3090169943749469 0.9510565162951538 -1.0447753158456822e-19
  outer loop
    vertex -1.0168416076894984 -2.283863644106503 35.0
    vertex -0.5197792270443965 -2.4453690018345147 21.0
    vertex -1.0168416076894984 -2.283863644106503 21.0
  endloop
endfacet
facet normal 0.3090169943749469 0.9510565162951538 -1.0447753158456822e-19
  outer loop
    vertex -0.5197792270443965 -2.4453690018345147 21.0
    vertex -1.0168416076894984 -2.283863644106503 35.0
    vertex -0.5197792270443965 -2.4453690018345147 35.0
  endloop
endfacet
facet normal 0.10452846326765292 0.9945218953682735 5.8901160892581655e-21
  outer loop
    vertex -0.5197792270443965 -2.4453690018345147 35.0
    vertex 1.416384724411995e-15 -2.5 21.0
    vertex -0.5197792270443965 -2.4453690018345147 21.0
  endloop
endfacet
facet normal 0.10452846326765292 0.9945218953682735 5.8901160892581655e-21
  outer loop
    vertex 1.416384724411995e-15 -2.5 21.0
    vertex -0.5197792270443965 -2.4453690018345147 35.0
    vertex 1.416384724411995e-15 -2.5 35.0
  endloop
endfacet
facet normal -0.1045284632676536 0.9945218953682735 5.0150595061623355e-20
  outer loop
    vertex 1.416384724411995e-15 -2.5 35.0
    vertex 0.5197792270443994 -2.4453690018345142 21.0
    vertex 1.416384724411995e-15 -2.5 21.0
  endloop
endfacet
facet normal -0.1045284632676536 0.9945218953682735 5.0150595061623355e-20
  outer loop
    vertex 0.5197792270443994 -2.4453690018345142 21.0
    vertex 1.416384724411995e-15 -2.5 35.0
    vertex 0.5197792270443994 -2.4453690018345142 35.0
  endloop
endfacet
facet normal -0.30901699437494823 0.9510565162951534 -3.4825843861523595e-20
  outer loop
    vertex 0.5197792270443994 -2.4453690018345142 35.0
    vertex 1.016841607689501 -2.283863644106502 21.0
    vertex 0.5197792270443994 -2.4453690018345142 21.0
  endloop
endfacet
facet normal -0.30901699437494823 0.9510565162951534 -3.4825843861523595e-20
  outer loop
    vertex 1.016841607689501 -2.283863644106502 21.0
    vertex 0.5197792270443994 -2.4453690018345142 35.0
    vertex 1.016841607689501 -2.283863644106502 35.0
  endloop
endfacet
facet normal -0.4999999999999999 0.8660254037844387 -1.2954941565905962e-19
  outer loop
    vertex 1.016841607689501 -2.283863644106502 35.0
    vertex 1.4694631307311832 -2.0225424859373686 21.0
    vertex 1.016841607689501 -2.283863644106502 21.0
  endloop
endfacet
facet normal -0.4999999999999999 0.8660254037844387 -1.2954941565905962e-19
  outer loop
    vertex 1.4694631307311832 -2.0225424859373686 21.0
    vertex 1.016841607689501 -2.283863644106502 35.0
    vertex 1.4694631307311832 -2.0225424859373686 35.0
  endloop
endfacet
facet normal -0.6691306063588585 0.743144825477394 6.1579369122688565e-19
  outer loop
    vertex 1.4694631307311832 -2.0225424859373686 35.0
    vertex 1.8578620636934855 -1.6728265158971456 21.0
    vertex 1.4694631307311832 -2.0225424859373686 21.0
  endloop
endfacet
facet normal -0.6691306063588585 0.743144825477394 6.1579369122688565e-19
  outer loop
    vertex 1.8578620636934855 -1.6728265158971456 21.0
    vertex 1.4694631307311832 -2.0225424859373686 35.0
    vertex 1.8578620636934855 -1.6728265158971456 35.0
  endloop
endfacet
facet normal -0.8090169943749472 0.5877852522924737 9.936403721993368e-20
  outer loop
    vertex 2.1650635094610964 -1.2500000000000004 35.0
    vertex 1.8578620636934855 -1.6728265158971456 21.0
    vertex 1.8578620636934855 -1.6728265158971456 35.0
  endloop
endfacet
facet normal -0.8090169943749472 0.5877852522924737 9.936403721993368e-20
  outer loop
    vertex 1.8578620636934855 -1.6728265158971456 21.0
    vertex 2.1650635094610964 -1.2500000000000004 35.0
    vertex 2.1650635094610964 -1.2500000000000004 21.0
  endloop
endfacet
facet normal -0.9135454576426012 0.4067366430757999 -7.157759959552817e-20
  outer loop
    vertex 2.3776412907378837 -0.7725424859373689 35.0
    vertex 2.1650635094610964 -1.2500000000000004 21.0
    vertex 2.1650635094610964 -1.2500000000000004 35.0
  endloop
endfacet
facet normal -0.9135454576426012 0.4067366430757999 -7.157759959552817e-20
  outer loop
    vertex 2.1650635094610964 -1.2500000000000004 21.0
    vertex 2.3776412907378837 -0.7725424859373689 35.0
    vertex 2.3776412907378837 -0.7725424859373689 21.0
  endloop
endfacet
facet normal -0.0 -0.0 1.0
  outer loop
    vertex -2.4863047384206833 -0.2613211581691356 21.0
    vertex -2.377641290737884 0.7725424859373681 21.0
    vertex -2.4863047384206833 0.2613211581691325 21.0
  endloop
endfacet
facet normal -0.0 -0.0 1.0
  outer loop
    vertex -2.377641290737884 0.7725424859373681 21.0
    vertex -2.4863047384206833 -0.2613211581691356 21.0
    vertex -2.377641290737883 -0.7725424859373712 21.0
  endloop
endfacet
facet normal -0.0 -0.0 1.0
  outer loop
    vertex -2.377641290737884 0.7725424859373681 21.0
    vertex -2.377641290737883 -0.7725424859373712 21.0
    vertex -2.1650635094610964 1.2500000000000004 21.0
  endloop
endfacet
facet normal -0.0 -0.0 1.0
  outer loop
    vertex -2.1650635094610964 1.2500000000000004 21.0
    vertex -2.377641290737883 -0.7725424859373712 21.0
    vertex -2.1650635094610946 -1.2500000000000029 21.0
  endloop
endfacet
facet normal -0.0 -0.0 1.0
  outer loop
    vertex -2.1650635094610964 1.2500000000000004 21.0
    vertex -2.1650635094610946 -1.2500000000000029 21.0
    vertex -1.8578620636934848 1.6728265158971463 21.0
  endloop
endfacet
facet normal -0.0 -0.0 1.0
  outer loop
    vertex -1.8578620636934848 1.6728265158971463 21.0
    vertex -2.1650635094610946 -1.2500000000000029 21.0
    vertex -1.8578620636934837 -1.672826515897148 21.0
  endloop
endfacet
facet normal -0.0 -0.0 1.0
  outer loop
    vertex -1.8578620636934848 1.6728265158971463 21.0
    vertex -1.8578620636934837 -1.672826515897148 21.0
    vertex -1.4694631307311814 2.0225424859373695 21.0
  endloop
endfacet
facet normal -0.0 -0.0 1.0
  outer loop
    vertex -1.4694631307311814 2.0225424859373695 21.0
    vertex -1.8578620636934837 -1.672826515897148 21.0
    vertex -1.4694631307311805 -2.0225424859373704 21.0
  endloop
endfacet
facet normal -0.0 -0.0 1.0
  outer loop
    vertex -1.4694631307311814 2.0225424859373695 21.0
    vertex -1.4694631307311805 -2.0225424859373704 21.0
    vertex -1.0168416076894984 2.2838636441065034 21.0
  endloop
endfacet
facet normal -0.0 -0.0 1.0
  outer loop
    vertex -1.0168416076894984 2.2838636441065034 21.0
    vertex -1.4694631307311805 -2.0225424859373704 21.0
    vertex -1.0168416076894984 -2.283863644106503 21.0
  endloop
endfacet
facet normal -0.0 -0.0 1.0
  outer loop
    vertex -1.0168416076894984 2.2838636441065034 21.0
    vertex -1.0168416076894984 -2.283863644106503 21.0
    vertex -0.5197792270443965 -2.4453690018345147 21.0
  endloop
endfacet
facet normal -0.0 -0.0 1.0
  outer loop
    vertex -1.0168416076894984 2.2838636441065034 21.0
    vertex -0.5197792270443965 -2.4453690018345147 21.0
    vertex -0.5197792270443953 2.4453690018345147 21.0
  endloop
endfacet
facet normal -0.0 -0.0 1.0
  outer loop
    vertex -0.5197792270443953 2.4453690018345147 21.0
    vertex -0.5197792270443965 -2.4453690018345147 21.0
    vertex 1.416384724411995e-15 -2.5 21.0
  endloop
endfacet
facet normal -0.0 -0.0 1.0
  outer loop
    vertex -0.5197792270443953 2.4453690018345147 21.0
    vertex 1.416384724411995e-15 -2.5 21.0
    vertex 0.0 2.5 21.0
  endloop
endfacet
facet normal -0.0 -0.0 1.0
  outer loop
    vertex 0.0 2.5 21.0
    vertex 1.416384724411995e-15 -2.5 21.0
    vertex 0.5197792270443983 2.4453690018345142 21.0
  endloop
endfacet
facet normal -0.0 -0.0 1.0
  outer loop
    vertex 0.5197792270443983 2.4453690018345142 21.0
    vertex 1.416384724411995e-15 -2.5 21.0
    vertex 0.5197792270443994 -2.4453690018345142 21.0
  endloop
endfacet
facet normal -0.0 -0.0 1.0
  outer loop
    vertex 0.5197792270443983 2.4453690018345142 21.0
    vertex 0.5197792270443994 -2.4453690018345142 21.0
    vertex 0.9848012627239973 2.2942741832598914 21.0
  endloop
endfacet
facet normal -0.0 -0.0 1.0
  outer loop
    vertex 0.9848012627239973 2.2942741832598914 21.0
    vertex 0.5197792270443994 -2.4453690018345142 21.0
    vertex 1.016841607689501 -2.283863644106502 21.0
  endloop
endfacet
facet normal -0.0 -0.0 1.0
  outer loop
    vertex 0.9848012627239973 2.2942741832598914 21.0
    vertex 1.016841607689501 -2.283863644106502 21.0
    vertex 2.4863047384206833 -0.26132115816913387 21.0
  endloop
endfacet
facet normal -0.0 -0.0 1.0
  outer loop
    vertex 2.4863047384206833 -0.26132115816913387 21.0
    vertex 1.016841607689501 -2.283863644106502 21.0
    vertex 1.4694631307311832 -2.0225424859373686 21.0
  endloop
endfacet
facet normal -0.0 -0.0 1.0
  outer loop
    vertex 2.4863047384206833 -0.26132115816913387 21.0
    vertex 1.4694631307311832 -2.0225424859373686 21.0
    vertex 1.8578620636934855 -1.6728265158971456 21.0
  endloop
endfacet
facet normal -0.0 -0.0 1.0
  outer loop
    vertex 2.4863047384206833 -0.26132115816913387 21.0
    vertex 1.8578620636934855 -1.6728265158971456 21.0
    vertex 2.1650635094610964 -1.2500000000000004 21.0
  endloop
endfacet
facet normal -0.0 -0.0 1.0
  outer loop
    vertex 2.4863047384206833 -0.26132115816913387 21.0
    vertex 2.1650635094610964 -1.2500000000000004 21.0
    vertex 2.3776412907378837 -0.7725424859373689 21.0
  endloop
endfacet
facet normal -0.30901699437494695 -0.9510565162951538 -5.223876579228346e-20
  outer loop
    vertex 0.9848012627239973 2.2942741832598914 35.0
    vertex 0.5197792270443983 2.4453690018345142 21.0
    vertex 0.9848012627239973 2.2942741832598914 21.0
  endloop
endfacet
facet normal -0.30901699437494695 -0.9510565162951538 -5.223876579228346e-20
  outer loop
    vertex 0.5197792270443983 2.4453690018345142 21.0
    vertex 0.9848012627239973 2.2942741832598914 35.0
    vertex 0.5197792270443983 2.4453690018345142 35.0
  endloop
endfacet
facet normal -0.8621977061316226 -0.5065719253387106 4.56720377134235e-19
  outer loop
    vertex 0.9848012627239973 2.2942741832598914 35.0
    vertex 2.4863047384206833 -0.26132115816913387 21.0
    vertex 2.4863047384206833 -0.26132115816913387 35.0
  endloop
endfacet
facet normal -0.8621977061316226 -0.5065719253387106 4.56720377134235e-19
  outer loop
    vertex 2.4863047384206833 -0.26132115816913387 21.0
    vertex 0.9848012627239973 2.2942741832598914 35.0
    vertex 0.9848012627239973 2.2942741832598914 21.0
  endloop
endfacet
facet normal 0.10452846326765278 -0.9945218953682735 3.660170480052593e-21
  outer loop
    vertex 0.0 2.5 35.0
    vertex -0.5197792270443953 2.4453690018345147 21.0
    vertex 0.0 2.5 21.0
  endloop
endfacet
facet normal 0.10452846326765278 -0.9945218953682735 3.660170480052593e-21
  outer loop
    vertex -0.5197792270443953 2.4453690018345147 21.0
    vertex 0.0 2.5 35.0
    vertex -0.5197792270443953 2.4453690018345147 35.0
  endloop
endfacet
facet normal -0.10452846326765354 -0.9945218953682735 5.970088163093547e-20
  outer loop
    vertex 0.5197792270443983 2.4453690018345142 35.0
    vertex 0.0 2.5 21.0
    vertex 0.5197792270443983 2.4453690018345142 21.0
  endloop
endfacet
facet normal -0.10452846326765354 -0.9945218953682735 5.970088163093547e-20
  outer loop
    vertex 0.0 2.5 21.0
    vertex 0.5197792270443983 2.4453690018345142 35.0
    vertex 0.0 2.5 35.0
  endloop
endfacet
endsolid motor_shaft_adapter
