# Alias OBJ Model File
# Exported from SketchUp, (c) 2000-2012 Trimble Navigation Limited
# File units = millimeters

mtllib led_mold.mtl

g Mesh1 Model

usemtl Metal_Aluminum_Anodized
v 60 -20 20
vt -2.3622 -0.787402
vn 0 -1 -0
v -20 -20 20
vt 0.787402 -0.787402
v -20 -20 -50
vt 0.787402 1.9685
v 60 -20 -50
vt -2.3622 1.9685
f 1/1/1 2/2/1 3/3/1 4/4/1 

vt -0.787402 -0.787402
vn 0 0 1
vt 2.3622 -0.787402
v 60 34 20
vt 2.3622 1.33858
v -20 34 20
vt -0.787402 1.33858
f 2/5/2 1/6/2 5/7/2 6/8/2 

vn 1 0 -0
vt 1.9685 -0.787402
v 60 34 -50
vt 1.9685 1.33858
f 1/5/3 4/9/3 7/10/3 5/8/3 

vn 0 0 -1
v -20 34 -50
vt 0.787402 1.33858
vt -2.3622 1.33858
f 4/1/4 3/2/4 8/11/4 7/12/4 

vt -1.9685 -0.787402
vn -1 0 -0
vt -1.9685 1.33858
f 3/13/5 2/2/5 6/11/5 8/14/5 

vn 0 1 -0
v 1.3806 34 -4.08658
vt 0.0543544 0.160889
vt -0.787402 1.9685
f 6/5/6 9/15/6 8/16/6

v 1.66987 34 -3.5
vt 0.065743 0.137795
f 9/15/6 6/5/6 10/17/6

v 2.03323 34 -2.95619
vt 0.0800486 0.116386
f 10/17/6 6/5/6 11/18/6

v 2.46447 34 -2.46447
vt 0.0970262 0.0970262
f 11/18/6 6/5/6 12/19/6

v 2.95619 34 -2.03323
vt 0.116386 0.0800486
f 12/19/6 6/5/6 13/20/6

v 3.5 34 -1.66987
vt 0.137795 0.065743
f 13/20/6 6/5/6 14/21/6

v 4.08658 34 -1.3806
vt 0.160889 0.0543544
f 14/21/6 6/5/6 15/22/6

f 15/22/6 6/5/6 5/6/6

v 4.7059 34 -1.17037
vt 0.185272 0.0460776
f 15/22/6 5/6/6 16/23/6

v 5.34737 34 -1.04278
vt 0.210526 0.0410542
f 16/23/6 5/6/6 17/24/6

v 6 34 -1
vt 0.23622 0.0393701
f 17/24/6 5/6/6 18/25/6

v 34 34 -1
vt 1.33858 0.0393701
f 18/25/6 5/6/6 19/26/6

v 34.6526 34 -1.04278
vt 1.36428 0.0410542
f 19/26/6 5/6/6 20/27/6

v 35.2941 34 -1.17037
vt 1.38953 0.0460776
f 20/27/6 5/6/6 21/28/6

v 35.9134 34 -1.3806
vt 1.41391 0.0543544
f 21/28/6 5/6/6 22/29/6

v 36.5 34 -1.66987
vt 1.43701 0.065743
f 22/29/6 5/6/6 23/30/6

v 37.0438 34 -2.03323
vt 1.45842 0.0800486
f 23/30/6 5/6/6 24/31/6

v 37.5355 34 -2.46447
vt 1.47778 0.0970262
f 24/31/6 5/6/6 25/32/6

v 37.9668 34 -2.95619
vt 1.49475 0.116386
f 25/32/6 5/6/6 26/33/6

v 38.3301 34 -3.5
vt 1.50906 0.137795
f 26/33/6 5/6/6 27/34/6

v 38.6194 34 -4.08658
vt 1.52045 0.160889
f 27/34/6 5/6/6 28/35/6

v 38.8296 34 -4.7059
vt 1.52873 0.185272
f 28/35/6 5/6/6 29/36/6

v 38.9572 34 -5.34737
vt 1.53375 0.210526
f 29/36/6 5/6/6 30/37/6

v 39 34 -6
vt 1.53543 0.23622
f 30/37/6 5/6/6 31/38/6

vt 2.3622 1.9685
f 7/39/6 31/38/6 5/6/6

v 39 34 -24
vt 1.53543 0.944882
f 7/39/6 32/40/6 31/38/6

v 38.9572 34 -24.6526
vt 1.53375 0.970576
f 7/39/6 33/41/6 32/40/6

v 38.8296 34 -25.2941
vt 1.52873 0.995831
f 7/39/6 34/42/6 33/41/6

v 38.6194 34 -25.9134
vt 1.52045 1.02021
f 7/39/6 35/43/6 34/42/6

v 38.3301 34 -26.5
vt 1.50906 1.04331
f 7/39/6 36/44/6 35/43/6

v 37.9668 34 -27.0438
vt 1.49475 1.06472
f 7/39/6 37/45/6 36/44/6

v 37.5355 34 -27.5355
vt 1.47778 1.08408
f 7/39/6 38/46/6 37/45/6

v 37.0438 34 -27.9668
vt 1.45842 1.10105
f 7/39/6 39/47/6 38/46/6

v 36.5 34 -28.3301
vt 1.43701 1.11536
f 7/39/6 40/48/6 39/47/6

v 35.9134 34 -28.6194
vt 1.41391 1.12675
f 7/39/6 41/49/6 40/48/6

v 35.2941 34 -28.8296
vt 1.38953 1.13502
f 7/39/6 42/50/6 41/49/6

v 34.6526 34 -28.9572
vt 1.36428 1.14005
f 7/39/6 43/51/6 42/50/6

v 34 34 -29
vt 1.33858 1.14173
f 7/39/6 44/52/6 43/51/6

v 6 34 -29
vt 0.23622 1.14173
f 7/39/6 45/53/6 44/52/6

v 5.34737 34 -28.9572
vt 0.210526 1.14005
f 7/39/6 46/54/6 45/53/6

v 4.7059 34 -28.8296
vt 0.185272 1.13502
f 7/39/6 47/55/6 46/54/6

v 4.08658 34 -28.6194
vt 0.160889 1.12675
f 7/39/6 48/56/6 47/55/6

f 8/16/6 48/56/6 7/39/6

v 3.5 34 -28.3301
vt 0.137795 1.11536
f 48/56/6 8/16/6 49/57/6

v 2.95619 34 -27.9668
vt 0.116386 1.10105
f 49/57/6 8/16/6 50/58/6

v 2.46447 34 -27.5355
vt 0.0970262 1.08408
f 50/58/6 8/16/6 51/59/6

v 2.03323 34 -27.0438
vt 0.0800486 1.06472
f 51/59/6 8/16/6 52/60/6

v 1.66987 34 -26.5
vt 0.065743 1.04331
f 52/60/6 8/16/6 53/61/6

v 1.3806 34 -25.9134
vt 0.0543544 1.02021
f 53/61/6 8/16/6 54/62/6

v 1.17037 34 -25.2941
vt 0.0460776 0.995831
f 54/62/6 8/16/6 55/63/6

v 1.04278 34 -24.6526
vt 0.0410542 0.970576
f 55/63/6 8/16/6 56/64/6

v 1 34 -24
vt 0.0393701 0.944882
f 56/64/6 8/16/6 57/65/6

v 1 34 -6
vt 0.0393701 0.23622
f 8/16/6 58/66/6 57/65/6

v 1.04278 34 -5.34737
vt 0.0410542 0.210526
f 8/16/6 59/67/6 58/66/6

v 1.17037 34 -4.7059
vt 0.0460776 0.185272
f 8/16/6 60/68/6 59/67/6

f 8/16/6 9/15/6 60/68/6

v 1.3806 1 -4.08658
vt 0.134879 0.0393701
vn 0.92388 -4.08425e-034 -0.382683
v 1.17037 1 -4.7059
vt 0.160628 0.0393701
vn 0.965926 -1.60541e-034 -0.258819
vt 0.160628 1.33858
vt 0.134879 1.33858
f 61/69/7 62/70/8 60/71/8 9/72/7 

v 34.6526 1 -28.9572
v 34 1 -29
v 6 1 -29
v 5.34737 1 -28.9572
v 4.7059 1 -28.8296
v 4.08658 1 -28.6194
v 3.5 1 -28.3301
v 2.95619 1 -27.9668
v 2.46447 1 -27.5355
v 2.03323 1 -27.0438
v 1.66987 1 -26.5
v 1.3806 1 -25.9134
v 1.17037 1 -25.2941
v 1.04278 1 -24.6526
v 1 1 -24
v 1 1 -6
v 1.04278 1 -5.34737
v 1.66987 1 -3.5
v 2.03323 1 -2.95619
v 2.46447 1 -2.46447
v 2.95619 1 -2.03323
v 3.5 1 -1.66987
v 4.08658 1 -1.3806
v 4.7059 1 -1.17037
v 5.34737 1 -1.04278
v 6 1 -1
v 34 1 -1
v 34.6526 1 -1.04278
v 35.2941 1 -1.17037
v 35.9134 1 -1.3806
v 36.5 1 -1.66987
v 37.0438 1 -2.03323
v 37.5355 1 -2.46447
v 37.9668 1 -2.95619
v 38.3301 1 -3.5
v 38.6194 1 -4.08658
v 38.8296 1 -4.7059
v 38.9572 1 -5.34737
v 39 1 -6
v 39 1 -24
v 38.9572 1 -24.6526
v 38.8296 1 -25.2941
v 38.6194 1 -25.9134
v 38.3301 1 -26.5
v 37.9668 1 -27.0438
v 37.5355 1 -27.5355
v 37.0438 1 -27.9668
v 36.5 1 -28.3301
v 35.9134 1 -28.6194
v 35.2941 1 -28.8296
f 63/51/6 64/52/6 65/53/6 66/54/6 67/55/6 68/56/6 69/57/6 70/58/6 71/59/6 72/60/6 73/61/6 74/62/6 75/63/6 76/64/6 77/65/6 78/66/6 79/67/6 62/68/6 61/15/6 80/17/6 81/18/6 82/19/6 83/20/6 84/21/6 85/22/6 86/23/6 87/24/6 88/25/6 89/26/6 90/27/6 91/28/6 92/29/6 93/30/6 94/31/6 95/32/6 96/33/6 97/34/6 98/35/6 99/36/6 100/37/6 101/38/6 102/40/6 103/41/6 104/42/6 105/43/6 106/44/6 107/45/6 108/46/6 109/47/6 110/48/6 111/49/6 112/50/6 

vt 1.26104 0.0393701
vn -0.0654031 1.8916e-032 0.997859
vt 1.28679 0.0393701
vn -0.130526 -2.47434e-033 0.991445
vt 1.28679 1.33858
vt 1.26104 1.33858
f 64/73/9 63/74/10 43/75/10 44/76/9 

vt 1.11565 0.0393701
vt 1.1414 0.0393701
vn -0.258819 -1.19526e-032 0.965926
vt 1.1414 1.33858
vt 1.11565 1.33858
f 63/77/10 112/78/11 42/79/11 43/80/10 

vt 0.950947 0.0393701
vt 0.976697 0.0393701
vn -0.382683 4.6208e-033 0.92388
vt 0.976697 1.33858
vt 0.950947 1.33858
f 112/81/11 111/82/12 41/83/12 42/84/11 

vt 0.769753 0.0393701
vt 0.795502 0.0393701
vn -0.5 1.02681e-032 0.866025
vt 0.795502 1.33858
vt 0.769753 1.33858
f 111/85/12 110/86/13 40/87/13 41/88/12 

vt 0.575168 0.0393701
vt 0.600917 0.0393701
vn -0.608761 -1.05487e-033 0.793353
vt 0.600917 1.33858
vt 0.575168 1.33858
f 110/89/13 109/90/14 39/91/14 40/92/13 

vt 0.370521 0.0393701
vt 0.39627 0.0393701
vn -0.707107 -6.70218e-033 0.707107
vt 0.39627 1.33858
vt 0.370521 1.33858
f 109/93/14 108/94/15 38/95/15 39/96/14 

vt 0.159314 0.0393701
vt 0.185064 0.0393701
vn -0.793353 0 0.608761
vt 0.185064 1.33858
vt 0.159314 1.33858
f 108/97/15 107/98/16 37/99/16 38/100/15 

vt -0.0548385 0.0393701
vt -0.0290893 0.0393701
vn -0.866025 9.11661e-033 0.5
vt -0.0290893 1.33858
vt -0.0548385 1.33858
f 107/101/16 106/102/17 36/103/17 37/104/16 

vt -0.268273 0.0393701
vt -0.242524 0.0393701
vn -0.92388 -5.08828e-034 0.382683
vt -0.242524 1.33858
vt -0.268273 1.33858
f 106/105/17 105/106/18 35/107/18 36/108/17 

vt -0.477338 0.0393701
vt -0.451589 0.0393701
vn -0.965926 -6.97731e-020 0.258819
vt -0.451589 1.33858
vt -0.477338 1.33858
f 105/109/18 104/110/19 34/111/19 35/112/18 

vt -0.678456 0.0393701
vt -0.652707 0.0393701
vn -0.991445 -6.97731e-020 0.130526
vt -0.652707 1.33858
vt -0.678456 1.33858
f 104/113/19 103/114/20 33/115/20 34/116/19 

vt -0.868186 0.0393701
vt -0.842437 0.0393701
vn -0.997859 0 0.0654031
vt -0.842437 1.33858
vt -0.868186 1.33858
f 103/117/20 102/118/21 32/119/21 33/120/20 

vt -0.944882 0.0393701
vn -1 0 3.1333e-016
vt -0.23622 0.0393701
vt -0.23622 1.33858
vt -0.944882 1.33858
f 102/121/22 101/122/22 31/123/22 32/124/22 

vt -0.336137 0.0393701
vn -0.997859 4.66821e-020 -0.0654031
vt -0.310388 0.0393701
vn -0.991445 2.33911e-020 -0.130526
vt -0.310388 1.33858
vt -0.336137 1.33858
f 101/125/23 100/126/24 30/127/24 31/128/23 

vt -0.505701 0.0393701
vt -0.479951 0.0393701
vn -0.965926 -1.14961e-019 -0.258819
vt -0.479951 1.33858
vt -0.505701 1.33858
f 100/129/24 99/130/25 29/131/25 30/132/24 

vt -0.666832 0.0393701
vt -0.641083 0.0393701
vn -0.92388 -1.14961e-019 -0.382683
vt -0.641083 1.33858
vt -0.666832 1.33858
f 99/133/25 98/134/26 28/135/26 29/136/25 

vt -0.816774 0.0393701
vt -0.791025 0.0393701
vn -0.866025 -1.98697e-019 -0.5
vt -0.791025 1.33858
vt -0.816774 1.33858
f 98/137/26 97/138/27 27/139/27 28/140/26 

vt -0.952961 0.0393701
vt -0.927212 0.0393701
vn -0.793353 -1.98697e-019 -0.608761
vt -0.927212 1.33858
vt -0.952961 1.33858
f 97/141/27 96/142/28 26/143/28 27/144/27 

vt -1.07306 0.0393701
vt -1.04731 0.0393701
vn -0.707107 -7.74479e-033 -0.707107
vt -1.04731 1.33858
vt -1.07306 1.33858
f 96/145/28 95/146/29 25/147/29 26/148/28 

vt -1.17503 0.0393701
vt -1.14928 0.0393701
vn -0.608761 1.05487e-033 -0.793353
vt -1.14928 1.33858
vt -1.17503 1.33858
f 95/149/29 94/150/30 24/151/30 25/152/29 

vt -1.2571 0.0393701
vt -1.23135 0.0393701
vn -0.5 -1.15149e-033 -0.866025
vt -1.23135 1.33858
vt -1.2571 1.33858
f 94/153/30 93/154/31 23/155/31 24/156/30 

vt -1.31789 0.0393701
vt -1.29214 0.0393701
vn -0.382683 4.49582e-033 -0.92388
vt -1.29214 1.33858
vt -1.31789 1.33858
f 93/157/31 92/158/32 22/159/32 23/160/31 

vt -1.35635 0.0393701
vt -1.3306 0.0393701
vn -0.258819 1.98307e-033 -0.965926
vt -1.3306 1.33858
vt -1.35635 1.33858
f 92/161/32 91/162/33 21/163/33 22/164/32 

vt -1.37182 0.0393701
vt -1.34607 0.0393701
vn -0.130526 2.64789e-033 -0.991445
vt -1.34607 1.33858
vt -1.37182 1.33858
f 91/165/33 90/166/34 20/167/34 21/168/33 

vt -1.36404 0.0393701
vt -1.33829 0.0393701
vn -0.0654031 1.32678e-033 -0.997859
vt -1.33829 1.33858
vt -1.36404 1.33858
f 90/169/34 89/170/35 19/171/35 20/172/34 

vt -1.33858 0.0393701
vn 7.55348e-017 0 -1
vt -1.33858 1.33858
f 89/173/36 88/122/36 18/123/36 19/174/36 

vt -0.23314 0.0393701
vn 0.0654031 -4.66821e-020 -0.997859
vt -0.207391 0.0393701
vn 0.130526 -2.33911e-020 -0.991445
vt -0.207391 1.33858
vt -0.23314 1.33858
f 88/175/37 87/176/38 17/177/38 18/178/37 

vt -0.198472 0.0393701
vt -0.172723 0.0393701
vn 0.258819 0 -0.965926
vt -0.172723 1.33858
vt -0.198472 1.33858
f 87/179/38 86/180/39 16/181/39 17/182/38 

vt -0.160628 0.0393701
vt -0.134879 0.0393701
vn 0.382683 0 -0.92388
vt -0.134879 1.33858
vt -0.160628 1.33858
f 86/183/39 85/184/40 15/185/40 16/186/39 

vt -0.120257 0.0393701
vt -0.0945074 0.0393701
vn 0.5 0 -0.866025
vt -0.0945074 1.33858
vt -0.120257 1.33858
f 85/187/40 84/188/41 14/189/41 15/190/40 

vt -0.0780477 0.0393701
vt -0.0522984 0.0393701
vn 0.608761 9.55296e-034 -0.793353
vt -0.0522984 1.33858
vt -0.0780477 1.33858
f 84/191/41 83/192/42 13/193/42 14/194/41 

vt -0.0347236 0.0393701
vt -0.00897434 0.0393701
vn 0.707107 5.3641e-034 -0.707107
vt -0.00897434 1.33858
vt -0.0347236 1.33858
f 83/195/42 82/196/43 12/197/43 13/198/42 

vt 0.00897434 0.0393701
vt 0.0347236 0.0393701
vn 0.793353 -6.59292e-035 -0.608761
vt 0.0347236 1.33858
vt 0.00897434 1.33858
f 82/199/43 81/200/44 11/201/44 12/202/43 

vt 0.0522984 0.0393701
vt 0.0780477 0.0393701
vn 0.866025 3.52957e-034 -0.5
vt 0.0780477 1.33858
vt 0.0522984 1.33858
f 81/203/44 80/204/45 10/205/45 11/206/44 

vt 0.0945074 0.0393701
vt 0.120257 0.0393701
vt 0.120257 1.33858
vt 0.0945074 1.33858
f 80/207/45 61/208/7 9/209/7 10/210/45 

vt 1.33858 1.33858
vt 0.23622 1.33858
f 65/25/2 64/26/2 44/211/2 45/212/2 

vt 0.284638 0.0393701
vn 0.130526 -2.33911e-020 0.991445
vt 0.310388 0.0393701
vn 0.0654031 -4.66821e-020 0.997859
vt 0.310388 1.33858
vt 0.284638 1.33858
f 66/213/46 65/214/47 45/215/47 46/216/46 

vt 0.403144 0.0393701
vn 0.258819 1.14961e-019 0.965926
vt 0.428894 0.0393701
vt 0.428894 1.33858
vt 0.403144 1.33858
f 67/217/48 66/218/46 46/219/46 47/220/48 

vt 0.514532 0.0393701
vn 0.382683 1.14961e-019 0.92388
vt 0.540281 0.0393701
vt 0.540281 1.33858
vt 0.514532 1.33858
f 68/221/49 67/222/48 47/223/48 48/224/49 

vt 0.616896 0.0393701
vn 0.5 9.11661e-033 0.866025
vt 0.642645 0.0393701
vt 0.642645 1.33858
vt 0.616896 1.33858
f 69/225/50 68/226/49 48/227/49 49/228/50 

vt 0.708484 0.0393701
vn 0.608761 -8.37772e-034 0.793353
vt 0.734233 0.0393701
vt 0.734233 1.33858
vt 0.708484 1.33858
f 70/229/51 69/230/50 49/231/50 50/232/51 

vt 0.787729 0.0393701
vn 0.707107 -8.37772e-034 0.707107
vt 0.813479 0.0393701
vt 0.813479 1.33858
vt 0.787729 1.33858
f 71/233/52 70/234/51 50/235/51 51/236/52 

vt 0.853276 0.0393701
vn 0.793353 0 0.608761
vt 0.879025 0.0393701
vt 0.879025 1.33858
vt 0.853276 1.33858
f 72/237/53 71/238/52 51/239/52 52/240/53 

vt 0.904003 0.0393701
vn 0.866025 -4.49582e-033 0.5
vt 0.929752 0.0393701
vt 0.929752 1.33858
vt 0.904003 1.33858
f 73/241/54 72/242/53 52/243/53 53/244/54 

vt 0.939042 0.0393701
vn 0.92388 1.14961e-019 0.382683
vt 0.964791 0.0393701
vt 0.964791 1.33858
vt 0.939042 1.33858
f 74/245/55 73/246/54 53/247/54 54/248/55 

vt 0.957793 0.0393701
vn 0.965926 1.14961e-019 0.258819
vt 0.983542 0.0393701
vt 0.983542 1.33858
vt 0.957793 1.33858
f 75/249/56 74/250/55 54/251/55 55/252/56 

vt 0.959936 0.0393701
vn 0.991445 0 0.130526
vt 0.985685 0.0393701
vt 0.985685 1.33858
vt 0.959936 1.33858
f 76/253/57 75/254/56 55/255/56 56/256/57 

vt 0.945434 0.0393701
vn 0.997859 0 0.0654031
vt 0.971183 0.0393701
vt 0.971183 1.33858
vt 0.945434 1.33858
f 77/257/58 76/258/57 56/259/57 57/260/58 

vn 1 0 -9.79155e-018
vt 0.944882 0.0393701
vt 0.944882 1.33858
f 78/25/59 77/261/59 57/262/59 58/212/59 

vt 0.207391 0.0393701
vn 0.991445 -6.90887e-035 -0.130526
vt 0.23314 0.0393701
vn 0.997859 -6.32588e-034 -0.0654031
vt 0.23314 1.33858
vt 0.207391 1.33858
f 79/263/60 78/264/61 58/265/61 59/266/60 

vt 0.172723 0.0393701
vt 0.198472 0.0393701
vt 0.198472 1.33858
vt 0.172723 1.33858
f 62/267/8 79/268/60 59/269/60 60/270/8 

